<svg id="svg" xmlns="http://www.w3.org/2000/svg" xmlns:xlink="http://www.w3.org/1999/xlink" width="400" height="400" viewBox="0, 0, 400,400" version="1.1"><g id="svgg"><path id="path0" d="M130.600 80.203 C 126.823 81.542,127.145 70.886,127.281 190.200 C 127.414 305.964,127.126 295.196,130.119 296.460 C 132.261 297.364,164.566 297.238,166.244 296.319 C 168.634 295.010,168.534 297.631,168.277 243.081 C 168.042 193.337,167.803 184.053,166.427 171.400 C 164.798 156.416,164.504 143.431,165.762 142.041 C 168.751 138.741,171.657 144.362,179.392 168.400 C 180.206 170.930,183.445 180.830,186.590 190.400 C 189.735 199.970,194.331 214.010,196.804 221.600 C 199.276 229.190,202.714 239.720,204.443 245.000 C 206.173 250.280,209.504 260.450,211.845 267.600 C 220.837 295.054,220.779 294.909,223.335 296.308 C 224.499 296.945,226.773 297.000,251.871 297.000 C 282.190 297.000,280.460 297.152,281.894 294.361 C 282.735 292.725,282.615 83.974,281.772 82.197 C 280.650 79.832,280.377 79.800,261.529 79.800 C 242.245 79.800,242.791 79.712,241.693 82.992 C 240.081 87.806,241.499 196.256,243.385 212.400 C 243.956 217.293,244.380 231.388,243.999 232.805 C 242.326 239.018,237.538 229.417,229.036 202.800 C 227.385 197.630,223.308 184.850,219.977 174.400 C 216.646 163.950,211.072 146.490,207.590 135.600 C 204.108 124.710,198.953 108.537,196.134 99.660 C 190.405 81.621,190.063 80.914,186.635 80.051 C 183.742 79.322,132.692 79.461,130.600 80.203 " stroke="none" fill="#f9f9f7" fill-rule="evenodd"></path><path id="path1" d="M128.258 76.646 C 125.687 77.444,126.006 77.586,129.346 77.129 C 133.445 76.569,185.417 76.920,187.218 77.520 C 189.998 78.446,192.177 81.734,193.766 87.400 C 194.494 89.994,198.078 101.337,200.212 107.800 C 200.938 110.000,202.557 115.130,203.809 119.200 C 206.181 126.910,209.004 135.750,211.601 143.600 C 212.438 146.130,214.144 151.440,215.391 155.400 C 216.638 159.360,218.441 165.030,219.397 168.000 C 220.353 170.970,222.245 176.910,223.601 181.200 C 224.958 185.490,226.503 190.227,227.035 191.727 C 227.567 193.226,228.463 196.090,229.025 198.089 C 229.587 200.089,230.645 203.272,231.376 205.163 C 232.107 207.053,233.216 210.036,233.839 211.791 C 234.463 213.546,235.450 215.515,236.032 216.166 L 237.091 217.351 237.614 216.376 C 238.591 214.552,238.431 209.200,237.399 209.200 C 236.295 209.200,233.777 202.970,230.932 193.200 C 230.388 191.330,229.151 187.460,228.185 184.600 C 227.218 181.740,226.227 178.590,225.984 177.600 C 225.741 176.610,224.940 174.090,224.203 172.000 C 223.467 169.910,221.858 164.960,220.628 161.000 C 219.398 157.040,217.840 152.180,217.166 150.200 C 216.492 148.220,215.506 145.070,214.974 143.200 C 214.443 141.330,213.385 138.090,212.624 136.000 C 211.862 133.910,210.791 130.670,210.242 128.800 C 209.694 126.930,208.712 123.780,208.061 121.800 C 207.410 119.820,206.510 116.940,206.061 115.400 C 205.612 113.860,204.777 111.160,204.205 109.400 C 203.633 107.640,202.261 103.320,201.156 99.800 C 194.911 79.910,194.414 78.761,191.411 77.220 L 189.422 76.200 159.811 76.122 C 134.398 76.054,129.925 76.129,128.258 76.646 M242.986 76.373 C 241.080 76.830,239.820 77.666,241.600 77.293 C 245.263 76.526,278.527 76.963,280.189 77.800 C 283.762 79.599,283.400 67.146,283.400 188.400 C 283.400 309.140,283.737 297.250,280.273 298.823 C 278.352 299.695,223.228 300.047,221.003 299.201 C 220.406 298.974,220.053 298.962,220.183 299.172 C 221.008 300.508,223.101 300.600,252.600 300.600 L 281.800 300.600 283.800 299.600 C 285.331 298.835,286.011 298.181,286.700 296.815 L 287.600 295.030 287.598 188.615 C 287.596 116.889,287.461 81.717,287.184 80.718 C 286.672 78.873,284.507 77.023,282.175 76.435 C 280.220 75.943,245.014 75.887,242.986 76.373 M167.734 158.274 C 166.997 161.095,167.674 177.992,168.989 189.600 C 170.453 202.524,170.805 293.970,169.400 296.361 C 167.599 299.425,167.789 299.400,146.072 299.400 C 128.568 299.400,126.870 299.457,128.072 300.000 C 129.193 300.506,132.368 300.600,148.400 300.600 C 170.178 300.600,169.670 300.675,171.600 297.200 L 172.600 295.400 172.730 266.600 C 172.801 250.760,172.624 223.580,172.336 206.200 C 171.664 165.698,171.659 165.877,173.457 166.566 C 174.295 166.888,173.932 165.798,171.670 161.200 C 169.598 156.989,168.318 156.038,167.734 158.274 " stroke="none" fill="#9c2424" fill-rule="evenodd"></path><path id="path2" d="M128.565 77.187 C 126.121 77.559,124.596 78.487,123.680 80.159 C 122.831 81.708,122.366 290.781,123.202 294.680 C 124.266 299.638,124.430 299.672,147.200 299.521 C 167.624 299.385,167.622 299.385,169.400 296.361 C 170.805 293.970,170.453 202.524,168.989 189.600 C 166.947 171.581,166.903 156.983,168.890 157.274 C 171.023 157.586,173.279 163.965,197.797 239.000 C 202.110 252.200,206.520 265.610,207.597 268.800 C 208.674 271.990,210.921 278.802,212.590 283.937 C 216.628 296.363,217.304 297.649,220.502 298.985 C 223.006 300.031,277.940 299.882,280.273 298.823 C 283.737 297.250,283.400 309.140,283.400 188.400 C 283.400 81.637,283.398 81.397,282.589 80.000 C 280.850 76.999,280.859 77.000,260.400 77.000 C 240.213 77.000,239.984 77.026,238.096 79.501 L 237.000 80.938 236.876 130.569 C 236.770 173.222,236.851 182.309,237.454 195.200 C 238.308 213.441,238.322 215.133,237.632 216.376 L 237.091 217.351 236.032 216.166 C 235.450 215.515,234.463 213.546,233.839 211.791 C 233.216 210.036,232.107 207.053,231.376 205.163 C 230.645 203.272,229.587 200.089,229.025 198.089 C 228.463 196.090,227.567 193.226,227.035 191.727 C 226.503 190.227,224.958 185.490,223.601 181.200 C 222.245 176.910,220.353 170.970,219.397 168.000 C 218.441 165.030,216.638 159.360,215.391 155.400 C 214.144 151.440,212.438 146.130,211.601 143.600 C 209.004 135.750,206.181 126.910,203.809 119.200 C 202.557 115.130,200.938 110.000,200.212 107.800 C 198.078 101.337,194.494 89.994,193.766 87.400 C 192.177 81.734,189.998 78.447,187.218 77.519 C 185.570 76.969,131.989 76.666,128.565 77.187 M186.635 80.051 C 190.063 80.914,190.405 81.621,196.134 99.660 C 198.953 108.537,204.108 124.710,207.590 135.600 C 211.072 146.490,216.646 163.950,219.977 174.400 C 223.308 184.850,227.385 197.630,229.036 202.800 C 237.538 229.417,242.326 239.018,243.999 232.805 C 244.380 231.388,243.956 217.293,243.385 212.400 C 241.499 196.256,240.081 87.806,241.693 82.992 C 242.791 79.712,242.245 79.800,261.529 79.800 C 280.377 79.800,280.650 79.832,281.772 82.197 C 282.615 83.974,282.735 292.725,281.894 294.361 C 280.460 297.152,282.190 297.000,251.871 297.000 C 226.773 297.000,224.499 296.945,223.335 296.308 C 220.779 294.909,220.837 295.054,211.845 267.600 C 209.504 260.450,206.173 250.280,204.443 245.000 C 202.714 239.720,199.276 229.190,196.804 221.600 C 194.331 214.010,189.735 199.970,186.590 190.400 C 183.445 180.830,180.206 170.930,179.392 168.400 C 171.657 144.362,168.751 138.741,165.762 142.041 C 164.504 143.431,164.798 156.416,166.427 171.400 C 167.803 184.053,168.042 193.337,168.277 243.081 C 168.534 297.631,168.634 295.010,166.244 296.319 C 164.566 297.238,132.261 297.364,130.119 296.460 C 127.126 295.196,127.414 305.964,127.281 190.200 C 127.145 70.886,126.823 81.542,130.600 80.203 C 132.692 79.461,183.742 79.322,186.635 80.051 " stroke="none" fill="#74bcec" fill-rule="evenodd"></path><path id="path3" d="M0.000 200.000 L 0.000 400.000 200.000 400.000 L 400.000 400.000 400.000 200.000 L 400.000 0.000 200.000 0.000 L 0.000 0.000 0.000 200.000 M191.411 77.220 C 194.414 78.761,194.911 79.910,201.156 99.800 C 202.261 103.320,203.633 107.640,204.205 109.400 C 204.777 111.160,205.612 113.860,206.061 115.400 C 206.510 116.940,207.410 119.820,208.061 121.800 C 208.712 123.780,209.694 126.930,210.242 128.800 C 210.791 130.670,211.862 133.910,212.624 136.000 C 213.385 138.090,214.443 141.330,214.974 143.200 C 215.506 145.070,216.492 148.220,217.166 150.200 C 217.840 152.180,219.398 157.040,220.628 161.000 C 221.858 164.960,223.467 169.910,224.203 172.000 C 224.940 174.090,225.741 176.610,225.984 177.600 C 226.227 178.590,227.218 181.740,228.185 184.600 C 229.151 187.460,230.388 191.330,230.932 193.200 C 233.826 203.140,236.294 209.200,237.446 209.200 C 238.123 209.200,238.128 210.459,237.387 194.600 C 236.888 183.924,236.792 171.799,236.885 131.200 L 237.000 81.000 237.926 79.702 C 238.436 78.987,239.696 77.907,240.726 77.302 L 242.600 76.200 261.200 76.070 C 281.519 75.928,282.896 76.040,285.309 78.029 C 287.721 80.018,287.595 73.927,287.598 188.615 L 287.600 295.030 286.700 296.815 C 286.011 298.181,285.331 298.835,283.800 299.600 L 281.800 300.600 252.400 300.600 C 220.167 300.600,221.860 300.721,218.880 298.209 C 216.961 296.590,215.975 294.352,212.590 283.937 C 210.921 278.802,208.674 271.990,207.597 268.800 C 206.520 265.610,202.109 252.200,197.795 239.000 C 183.387 194.909,174.285 167.595,173.767 166.894 C 172.051 164.572,171.602 168.738,172.073 182.600 C 172.290 188.980,172.498 216.970,172.534 244.800 L 172.600 295.400 171.600 297.200 C 169.672 300.671,170.152 300.600,148.600 300.600 C 127.883 300.600,127.913 300.603,125.171 298.126 C 122.609 295.811,122.745 302.392,122.878 187.000 C 123.014 69.678,122.749 80.158,125.629 78.038 C 128.367 76.022,128.125 76.035,159.811 76.120 L 189.422 76.200 191.411 77.220 " stroke="none" fill="#2C3E50" fill-rule="evenodd"></path></g></svg>