<svg xmlns="http://www.w3.org/2000/svg" width="1000" height="1406"><path fill="#0190D0" d="M812.063-.625c27.487.595 59.92 33.95 77.761 52.258 4.356 4.56 8.29 9.405 12.176 14.367q1.446 1.782 2.898 3.559c6.43 7.89 12.519 15.92 18.102 24.441l1.342 2.044c14.6 22.382 27.16 45.853 38.658 69.956l.994 2.082c9.463 19.893 17.07 39.37 22.006 60.918l.462 1.988c4.457 19.19 8.13 38.448 10.538 58.012l.453 3.438c7.298 56.93 2.886 115.355-9.39 171.25-14.766 68.166-18.757 139.624-23.434 209.093l-.16 2.367a6216 6216 0 0 0-4.75 77.836l-.14 2.527a41969 41969 0 0 0-2.355 43.362c-1.99 36.942-4.018 73.875-6.653 110.777l-.456 6.418c-1.87 26.283-4.275 52.511-6.775 78.74-.979 10.272-1.91 20.544-2.737 30.828-3.952 49.066-8.643 98.018-16.275 146.664q-.617 3.941-1.229 7.882l-.823 5.297-.414 2.656c-.67 4.29-1.35 8.577-2.058 12.86-3.747 22.697-5.517 44.776-5.677 67.783A121.5 121.5 0 0 1 911 1295c-.175.768-.35 1.537-.532 2.329-2.387 10.1-5.626 19.453-10.468 28.671-.512 1.004-1.024 2.008-1.55 3.043-9.847 18.166-25.962 30.532-45.477 36.953-4.773 1.264-9.565 2.1-14.44 2.865-8.446 1.355-16.515 3.472-24.72 5.889-69.58 20.387-141.734 25.707-213.813 29.25l-3.226.161c-92.138 4.608-186.683 1.393-351.024-42.411l-2.066-.813a101 101 0 0 1-4.094-1.794c-2.144-.946-4.25-1.723-6.459-2.49-5.982-2.27-11.444-4.522-14.394-10.505-1.92-4.898-3.096-9.975-4.3-15.085q-.763-2.917-1.542-5.83a815 815 0 0 1-3.224-12.586c-1.691-6.79-3.514-13.543-5.355-20.295a2348 2348 0 0 1-39.617-171.157c-5.282-27.411-11.387-54.582-17.762-81.757-.34-1.456-.34-1.456-.689-2.94-2.97-12.658-5.955-25.313-8.942-37.967-17.423-73.793-34.178-147.473-44.615-222.64a461 461 0 0 0-1.318-8.884c-1.256-8.04-1.723-15.87-1.686-24.007l.011-3.698c.133-10.973 1.12-20.46 6.302-30.302h2v-13h-4l-.332-3.832-.48-4.98-.213-2.526-.245-2.432-.206-2.237c-.638-2.426-1.746-3.28-3.524-4.993-.293-2.918-.293-2.918-.187-6.187l.082-3.293L89 663h-2v-35h-2v6l-2 1c-7.258-15.512-10.92-32.122-14.375-48.812C59.828 536.454 59.828 536.454 40 491c1.835 28.949 9.49 56.249 17.53 83.984 11.69 40.671 11.69 40.671 11.568 59.172l-.01 2.657-.025 2.687-.014 2.781Q69.03 645.641 69 649c-3.999-3.999-5.163-10.557-6.937-15.875l-.73-2.185c-8.946-27.032-15.364-54.797-20.665-82.753l-.574-3.004c-4.557-23.938-8.377-47.988-12.157-72.058-3.755-23.911-7.522-47.801-12.167-71.559l-.485-2.486c-3.947-20.15-8.52-40.236-14.48-59.891-2.31-9.16-1.533-16.977 3.117-25.212 13.842-19.827 37.964-31.243 61.234-35.563 6.866-1 12.693-.82 18.844 2.586 2.24 2.51 2 3.985 2.063 7.375-1.472 5.02-3.792 6.81-8.063 9.625-7.454 3.967-14.976 6.252-23.187 8.063l-6.586 1.523L42 309a965 965 0 0 0-9.312 2.188l-3.676.855c-2.962.941-4.779 1.815-7.012 3.957-.731 3.144-.532 5.063 1.07 7.887 1.414 2.021 1.414 2.021 3.077 3.929a75 75 0 0 1 3.299 4.157c6.473 7.829 15.48 9.025 24.929 11.152q2.694.637 5.386 1.276c67.309 15.76 136.078 18.32 204.89 20.224q13.832.383 27.664.812c18.227.566 36.456 1.081 54.685 1.563l2.598.069c47.442 1.256 94.875 2.13 142.335 2.177q4.7.006 9.397.02c42.425.199 42.425.199 84.67-3.266 2.68-.133 5.312-.087 8-.062l2.059.013q2.47.02 4.941.049l-.75-2.633c-.332-4.465.974-5.8 3.75-9.242l1.258-1.572A392 392 0 0 1 609 348l1.879-2.414c3.68-4.56 7.403-7.91 13.121-9.586 4.004-.077 5.368.42 8.313 3.125 2.395 4.082 3.15 7.366 2.28 12.078-1.963 6.875-5.55 11.746-11.468 15.735-.701.35-1.403.7-2.125 1.062 3.832 1.916 8.714 1.419 12.967 1.605 5.932.294 5.932.294 7.033 1.395 5.39.43 10.07.39 15-2h3c-1.024-2.204-2.031-4.038-3.562-5.937-1.784-2.56-2.344-3.924-2.438-7.063 1.69-2.264 3.213-3.972 5.25-5.875l1.667-1.598c10.722-10.021 23.494-15.337 37.27-19.964 10.71-3.758 19.088-9.651 26.301-18.36 4.452-5.346 9.462-9.735 14.801-14.167 3.32-2.623 3.32-2.623 5.711-6.036-11.651 6.298-22.776 13.236-33.814 20.552q-2.706 1.79-5.42 3.565c-6.567 4.322-13.01 8.818-19.453 13.32l-2.725 1.905-2.537 1.78-2.292 1.606c-1.694 1.154-1.694 1.154-2.759 2.272-9.383.662-17.374.821-24.875-5.375-3.86-4.769-4.707-8.513-4.125-14.625 4.654-19.529 17.493-36.454 31.004-50.832 2-2.11 2-2.11 3.648-4.305 5.407-6.94 13.085-11.552 21.625-13.68L705 246l2 2c-.194 5.607-2.83 9.831-5.562 14.563-.447.787-.893 1.575-1.352 2.387a457 457 0 0 1-10.492 17.448A69 69 0 0 0 686 289a925 925 0 0 0 4.75-2.312l2.672-1.301c5.068-2.726 6.971-4.585 8.953-10.074 3.725-9.433 8.945-16.083 17.813-21.125 7.603-2.369 14.561-2.076 21.687 1.55 6.772 4.021 13.522 9.056 17.125 16.262l.41-1.977c1.391-5.646 2.848-9.362 7.61-12.847 8.72-5.177 19.104-5.27 28.98-6.176l-1.828-.734-2.422-1.016-2.39-.984c-2.628-1.41-4.356-3.078-6.36-5.266l1.68-1.828 2.195-2.422 2.18-2.39c1.714-2.08 2.875-3.904 3.945-6.36-11.455 2.72-22.714 5.928-33.964 9.4-5.037 1.485-9.478 1.606-14.723 1.475-6.66-.103-12.85.36-19.375 1.688-7.513 1.503-14.265 2.76-21-1.5-3.083-3.282-3.358-5.794-3.258-10.29C702.312 216.64 711.394 203.28 718 191a795 795 0 0 0 17.405-34.408 781 781 0 0 1 8.947-18.215C775.536 80.603 775.536 80.603 789 18l1.688-.375c2.533-.685 4.891-1.616 7.312-2.625v-2l6-1v-2l2-1-.125-3.375c.17-4.912 1.536-5.947 6.188-6.25M18 361c4.003 9.06 10.838 13.466 19.438 17.688C40 380 40 380 41 382l-15 2c1.192 10.424 2.731 20.639 4.867 30.91.446 2.153.875 4.31 1.303 6.467 3.61 17.78 8.647 39.816 23.92 51.178 7.574 4.712 14.588 5.108 23.222 3.445 8.315-2.14 16.062-5.99 22.676-11.48 5.389-3.884 11.964-4.96 18.325-6.457.699-.17 1.398-.338 2.119-.512 23.185-5.593 46.591-9.356 70.256-12.238l2.365-.294c36.782-4.505 73.87-5.92 110.862-7.543q7.53-.333 15.06-.676 9.03-.408 18.064-.812l3.438-.154 9.568-.423 2.849-.127c4.038-.176 8.062-.34 12.106-.284v1q6.934.037 13.867.055 2.35.008 4.701.02c9.2.05 18.27-.084 27.432-1.075v-2l2.336.035 3.039.027 3.023.036c2.586.082 2.586.082 4.602-1.098v-2l1.793.07 2.394.055 2.356.07c2.495-.069 2.495-.069 4.766-1.168 2.839-1.083 5.188-1.423 8.21-1.66l3.096-.254 3.197-.238 3.256-.262q3.966-.316 7.932-.613v-2q11.508.176 23.016.372 3.92.065 7.837.125 5.619.088 11.237.187l3.564.05 3.275.06 2.9.048C517 425 517 425 518 426c1.849.234 3.705.413 5.563.563l3.066.253L529 427c-5.916 6.222-12.265 11.69-19 17l-1.946 1.54a896 896 0 0 1-25.804 19.647c-15.321 11.233-29.803 22.668-42.608 36.757C430.436 512.057 420.89 521.689 410 530l-1.658 1.283c-15.735 12.134-33.686 24.058-53.283 28.682-3.123.71-3.123.71-4.329 2.945l-.543 2.153A63 63 0 0 1 349 569l-2 1c-.658 3.03-.658 3.03-1 6h-2l-1 4c1.666.043 3.334.04 5 0l1-1c1.676-.089 3.354-.153 5.031-.207 6.229-.527 9.684-2.63 14.469-6.48l4.684-3.575 2.401-1.872c3.154-2.437 6.37-4.78 9.591-7.126C405.209 545.136 405.209 545.136 424 529a781 781 0 0 1 4.063-3.5c2.887-2.507 5.58-5.138 8.25-7.875 4.004-4.06 8.275-7.607 12.722-11.168 4.485-3.716 8.707-7.7 12.965-11.672 2.959-2.758 5.984-5.431 9.043-8.078A544 544 0 0 0 478 480.5a683 683 0 0 1 9-8c7.765-6.771 15.363-13.729 22.95-20.7q2.935-2.696 5.882-5.382 4.596-4.196 9.168-8.418l1.765-1.624C540.913 423.326 554.444 409.658 568 396c-9.67-6.447-21.022-5.08-32-4l-1-3 2-1c-1.734-1.734-4.11-1.213-6.476-1.283l-3.618-.114-4.018-.112-4.222-.13q-4.59-.14-9.182-.271-7.398-.214-14.797-.44-10.629-.321-21.258-.633-16.706-.495-33.41-1.005l-2.802-.085-28.133-.856c-181.625-5.514-181.625-5.514-369.516-20.69l-2.477-.287q-2.17-.255-4.34-.526c-4.937-.587-9.79-.653-14.751-.568"/><path fill="#070707" d="M812.063-.625c27.487.595 59.92 33.95 77.761 52.258 4.356 4.56 8.29 9.405 12.176 14.367q1.446 1.782 2.898 3.559c6.43 7.89 12.519 15.92 18.102 24.441l1.342 2.044c14.6 22.382 27.16 45.853 38.658 69.956l.994 2.082c9.463 19.893 17.07 39.37 22.006 60.918l.462 1.988c4.457 19.19 8.13 38.448 10.538 58.012l.453 3.438c7.298 56.93 2.886 115.355-9.39 171.25-14.766 68.166-18.757 139.624-23.434 209.093l-.16 2.367a6216 6216 0 0 0-4.75 77.836l-.14 2.527a41969 41969 0 0 0-2.355 43.362c-1.99 36.942-4.018 73.875-6.653 110.777l-.456 6.418c-1.87 26.283-4.275 52.511-6.775 78.74-.979 10.272-1.91 20.544-2.737 30.828-3.952 49.066-8.643 98.018-16.275 146.664q-.617 3.941-1.229 7.882l-.823 5.297-.414 2.656c-.67 4.29-1.35 8.577-2.058 12.86-3.747 22.697-5.517 44.776-5.677 67.783A121.5 121.5 0 0 1 911 1295c-.175.768-.35 1.537-.532 2.329-2.387 10.1-5.626 19.453-10.468 28.671-.512 1.004-1.024 2.008-1.55 3.043-9.847 18.166-25.962 30.532-45.477 36.953-4.773 1.264-9.565 2.1-14.44 2.865-8.446 1.355-16.515 3.472-24.72 5.889-69.58 20.387-141.734 25.707-213.813 29.25l-3.226.161c-92.138 4.608-186.683 1.393-351.024-42.411l-2.066-.813a101 101 0 0 1-4.094-1.794c-2.144-.946-4.25-1.723-6.459-2.49-5.982-2.27-11.444-4.522-14.394-10.505-1.92-4.898-3.096-9.975-4.3-15.085q-.763-2.917-1.542-5.83a815 815 0 0 1-3.224-12.586c-1.691-6.79-3.514-13.543-5.355-20.295a2348 2348 0 0 1-39.617-171.157c-5.282-27.411-11.387-54.582-17.762-81.757-.34-1.456-.34-1.456-.689-2.94-2.97-12.658-5.955-25.313-8.942-37.967-17.423-73.793-34.178-147.473-44.615-222.64a461 461 0 0 0-1.318-8.884c-1.256-8.04-1.723-15.87-1.686-24.007l.011-3.698c.133-10.973 1.12-20.46 6.302-30.302h5c4.468 6.932 6.47 13.696 8.207 21.707l1.299 5.728q.689 3.06 1.364 6.126c.961 4.346 1.943 8.687 2.928 13.027q1.554 6.84 3.097 13.682c3.514 15.596 7.13 31.168 10.793 46.73l.49 2.085C146.938 893.549 165.673 968.74 188 1043l.821 2.736c7.719 25.696 16.062 51.144 24.873 76.486A766 766 0 0 1 217 1132c5.126.103 9.95.036 15-1-1.295 4.085-2.842 7.918-4.625 11.813-3.214 7.702-3.472 13.971-.531 21.812 5.865 12.047 16.541 21.484 26.597 30.035 1.234 1.06 2.409 2.19 3.559 3.34v3q-3.032-.216-6.062-.437l-3.41-.247c-3.535-.317-7.018-.802-10.528-1.316l1.106 3.673c3.922 13.247 7.078 26.585 10.018 40.08 12.59 59.635 12.59 59.635 49.876 106.247l1.562 1.236c6.272 4.473 13.092 5.467 20.563 6.764q2.064.375 4.128.755c4.245.774 8.495 1.511 12.747 2.245l3.942.688c7.511 1.306 15.03 2.551 22.558 3.75 3.2.514 6.395 1.048 9.59 1.585 33.567 5.475 67.946 8.358 101.91 9.977l2.383.125c23.004 1.186 46.027 1.076 69.055 1.063l3.17-.001c31.067-.01 62.068-.198 93.091-1.997q5.479-.313 10.958-.613c27.724-1.533 55.433-3.246 83.093-5.702l2.758-.243c43.156-3.85 95.386-14.714 125.422-48.823 3.375-4.291 5.775-8.867 8.07-13.809l-3.5.125c-4.445.016-8.237-.907-12.5-2.125 2.754-3.48 6.643-4.693 10.625-6.312 12.653-5.286 12.653-5.286 21.598-15.313 1.281-3.915.807-7.746.632-11.82.19-4.663 1.568-8.54 3.15-12.901 6.237-17.238 7.338-35.606 7.2-53.775-.018-2.51-.02-5.018-.02-7.527-.019-8.602-.316-17.112-.956-25.693-.368-5.879-.415-11.75-.414-17.638-.002-2.02-.02-4.04-.04-6.06-.05-11.53 1.206-22.684 3.593-33.968 1.96-9.403 3.386-18.848 4.585-28.376l.26-2.065c1.99-15.985 3.169-32.015 4.31-48.079 2.058-28.87 4.79-57.52 8.568-86.221 1.311-10.109 2.14-20.245 2.737-30.42q.195-3.177.422-6.352c.512-7.214.872-14.406 1.04-21.636.68-28.882 1.882-58.33 6.71-86.844l.409-2.57c.41-2.506.865-4.998 1.341-7.492l.365-2.186c1.09-5.137 3.221-7.457 7.244-10.505 3.22-2.447 4.42-4.7 4.989-8.688.395-7.286-1.301-11.636-5.348-17.559a2325 2325 0 0 1-3.83-5.68 314 314 0 0 0-2.691-3.917c-4.656-6.78-6.623-13.163-5.479-21.403 1.908-6.048 4.845-10.01 9.64-14.09 3.363-3.327 4.988-5.438 5.38-10.191a131 131 0 0 0-.207-6.219l-.094-3.523c-.571-15.78-2.077-31.547-3.478-47.27-1.463-16.486-2.427-32.901-2.303-49.457l.013-3.629q.018-4.31.049-8.621h6l1-6h4v-11l5-2c.887-2.041.887-2.041 1-4l4-1 1-4h2v-8h-2v-3h-20v3l-3.684.184-4.754.254-2.431.119c-3.883-.152-3.883-.152-7.131 1.443a91 91 0 0 1-5.129.098l-3.135-.01-3.298-.025-3.311-.014q-4.064-.018-8.127-.049v4h-83v2l-3.648.148-4.727.227c-.794.03-1.588.062-2.406.094-4.586.05-4.586.05-8.219 2.531-13.552 3.036-27.839 2.258-41.625 2.195l-7.33-.008q-9.568-.014-19.135-.05c-6.53-.02-13.06-.03-19.59-.04q-19.16-.031-38.32-.097v4c-7.63 2.472-15.04 2.226-23 2.125q-2.04-.016-4.082-.027A1828 1828 0 0 1 633 563v4c-25.278.852-50.546 1.09-75.836 1.063l-2.28-.003c-12.547-.012-25.094-.038-37.641-.065-46.34-.172-46.34-.172-92.676.268q-2.82.049-5.641.083c-2.51.033-5.017.084-7.526.142l-2.18.02c-3.812.076-3.812.076-6.973 2.006L401 572c-3.355.293-3.355.293-7.187.188l-3.856-.083L387 572v2h-20c1.296-3.887 3.627-5.107 6.875-7.312q1.918-1.336 3.832-2.676l2.092-1.46c14.392-10.151 28.97-20.53 41.935-32.47a240 240 0 0 1 6.329-5.582c2.887-2.507 5.58-5.138 8.25-7.875 4.004-4.06 8.275-7.607 12.722-11.168 4.485-3.716 8.707-7.7 12.965-11.672 2.959-2.758 5.984-5.431 9.043-8.078A544 544 0 0 0 478 479.5a683 683 0 0 1 9-8c7.765-6.771 15.363-13.729 22.95-20.7q2.935-2.696 5.882-5.382 4.597-4.196 9.168-8.418l1.781-1.64C540.572 422.628 553.783 409.32 567 396c-10.248-4.135-20.084-4.602-31-3-.562-1.937-.562-1.937-1-4l1-1-2.2-.067a166102 166102 0 0 1-164.55-5.082c-85.734-2.687-171.452-5.504-329.717-19.47l-2.49-.287q-2.19-.255-4.38-.526c-4.593-.544-9.047-.636-13.663-.568l2 2.875C23 368 23 368 23 370l1.547.742c3.294 1.69 6.494 3.537 9.703 5.383l1.969 1.129Q38.61 378.625 41 380v2c-5.247 1.473-9.512 2.045-15 2q1.56 8.24 3.143 16.473.534 2.788 1.062 5.577c1.859 9.825 3.836 19.59 6.358 29.27l.587 2.275c3.563 13.265 9.067 27.89 21.225 35.467C67.579 477.477 76.558 476.21 86 473c5.725-2.615 11.134-5.45 15.988-9.48 5.389-3.884 11.964-4.96 18.325-6.457l2.119-.512c23.185-5.593 46.591-9.356 70.256-12.238l2.365-.294c33.048-4.048 66.373-5.605 99.614-7.08 3.813-.17 7.625-.35 11.437-.53 18.97-.89 37.899-1.751 56.896-1.409v1c-23.313 3.988-46.552 7.611-70.119 9.736-9.27.849-18.53 1.795-27.79 2.744q-5.65.578-11.303 1.145c-34.873 3.52-69.645 7.15-103.904 14.762-5.854 1.28-11.605 2.092-17.571 2.613-16.545 1.509-29.645 9.529-41.313 21l-1.973 1.934c-8.149 8.614-12.336 18.632-12.257 30.37.293 3.43 1.418 5.796 3.23 8.696l1 3c1.747 1.115 1.747 1.115 4 2l2.805 1.254 3.07 1.308 3.055 1.317c5.31 1.939 10.335 2.202 15.945 2.371 10.331.479 20.343 2.85 30.398 5.144a171 171 0 0 0 5.38 1.106l2.445.473 2.144.387C152 548 152 548 154 551c-3.125 2.645-6.088 3.844-10 5l2.25 1.75A77 77 0 0 1 153 564c-6.387-.551-12.132-1.703-18.25-3.582l-2.597-.774q-4.08-1.22-8.153-2.457c-15.11-4.569-15.11-4.569-30.375-8.574l-2.034-.506c-4.265-.995-8.22-1.253-12.591-1.107 1.503 3.668 3.637 5.69 6.625 8.25l2.477 2.14L90 559c-3.937 1.312-5.78.34-9.687-.937l-3.575-1.153L74 556l3.286 21.93c2.542 17.384 2.542 17.384 5.347 34.726C83.932 620.161 84.224 627.392 84 635c-9.372-11.63-11.62-29.896-14.437-44.25-8.865-52.1-8.865-52.1-29.563-99.75 1.835 28.949 9.49 56.249 17.53 83.984 11.69 40.671 11.69 40.671 11.568 59.172l-.01 2.657-.025 2.687-.014 2.781Q69.03 645.641 69 649c-3.999-3.999-5.163-10.557-6.937-15.875l-.73-2.185c-8.946-27.032-15.364-54.797-20.665-82.753l-.574-3.004c-4.557-23.938-8.377-47.988-12.157-72.058-3.755-23.911-7.522-47.801-12.167-71.559l-.485-2.486c-3.947-20.15-8.52-40.236-14.48-59.891-2.31-9.16-1.533-16.977 3.117-25.212 13.842-19.827 37.964-31.243 61.234-35.563 6.866-1 12.693-.82 18.844 2.586 2.24 2.51 2 3.985 2.063 7.375-1.472 5.02-3.792 6.81-8.063 9.625-7.454 3.967-14.976 6.252-23.187 8.063l-6.586 1.523L42 309a965 965 0 0 0-9.312 2.188l-3.676.855c-2.962.941-4.779 1.815-7.012 3.957-.731 3.144-.532 5.063 1.07 7.887 1.414 2.021 1.414 2.021 3.077 3.929a75 75 0 0 1 3.299 4.157c6.473 7.829 15.48 9.025 24.929 11.152q2.694.637 5.386 1.276c67.309 15.76 136.078 18.32 204.89 20.224q13.832.383 27.664.812c18.227.566 36.456 1.081 54.685 1.563l2.598.069c47.442 1.256 94.875 2.13 142.335 2.177q4.7.006 9.397.02c42.425.199 42.425.199 84.67-3.266 2.68-.133 5.312-.087 8-.062l2.059.013q2.47.02 4.941.049l-.75-2.633c-.332-4.465.974-5.8 3.75-9.242l1.258-1.572A392 392 0 0 1 609 348l1.879-2.414c3.68-4.56 7.403-7.91 13.121-9.586 4.004-.077 5.368.42 8.313 3.125 2.395 4.082 3.15 7.366 2.28 12.078-1.963 6.875-5.55 11.746-11.468 15.735-.701.35-1.403.7-2.125 1.062 3.832 1.916 8.714 1.419 12.967 1.605 5.932.294 5.932.294 7.033 1.395 5.39.43 10.07.39 15-2h3c-1.024-2.204-2.031-4.038-3.562-5.937-1.784-2.56-2.344-3.924-2.438-7.063 1.69-2.264 3.213-3.972 5.25-5.875l1.667-1.598c10.722-10.021 23.494-15.337 37.27-19.964 10.71-3.758 19.088-9.651 26.301-18.36 4.452-5.346 9.462-9.735 14.801-14.167 3.32-2.623 3.32-2.623 5.711-6.036-11.651 6.298-22.776 13.236-33.814 20.552q-2.706 1.79-5.42 3.565c-6.567 4.322-13.01 8.818-19.453 13.32l-2.725 1.905-2.537 1.78-2.292 1.606c-1.694 1.154-1.694 1.154-2.759 2.272-9.383.662-17.374.821-24.875-5.375-3.86-4.769-4.707-8.513-4.125-14.625 4.654-19.529 17.493-36.454 31.004-50.832 2-2.11 2-2.11 3.648-4.305 5.407-6.94 13.085-11.552 21.625-13.68L705 246l2 2c-.194 5.607-2.83 9.831-5.562 14.563-.447.787-.893 1.575-1.352 2.387a457 457 0 0 1-10.492 17.448A69 69 0 0 0 686 289a925 925 0 0 0 4.75-2.312l2.672-1.301c5.068-2.726 6.971-4.585 8.953-10.074 3.725-9.433 8.945-16.083 17.813-21.125 7.603-2.369 14.561-2.076 21.687 1.55 6.772 4.021 13.522 9.056 17.125 16.262l.41-1.977c1.391-5.646 2.848-9.362 7.61-12.847 8.72-5.177 19.104-5.27 28.98-6.176l-1.828-.734-2.422-1.016-2.39-.984c-2.628-1.41-4.356-3.078-6.36-5.266l1.68-1.828 2.195-2.422 2.18-2.39c1.714-2.08 2.875-3.904 3.945-6.36-11.455 2.72-22.714 5.928-33.964 9.4-5.037 1.485-9.478 1.606-14.723 1.475-6.66-.103-12.85.36-19.375 1.688-7.513 1.503-14.265 2.76-21-1.5-3.083-3.282-3.358-5.794-3.258-10.29C702.312 216.64 711.394 203.28 718 191a795 795 0 0 0 17.405-34.408 781 781 0 0 1 8.947-18.215C775.536 80.603 775.536 80.603 789 18l1.688-.375c2.533-.685 4.891-1.616 7.312-2.625v-2l6-1v-2l2-1-.125-3.375c.17-4.912 1.536-5.947 6.188-6.25"/><path fill="#3696A8" d="M939 541h20v3h2v8h-2l-1 5h-4l-1 5-5 1v11h-4l-1 6h-6v19h-1l-.148-2.809-.227-3.629c-.07-1.194-.14-2.39-.21-3.62-.138-.971-.274-1.942-.415-2.942l-2-1-.238 1.781c-1.017 2.96-2.447 3.858-4.95 5.719-10.568 8.14-20.465 16.972-30.13 26.16-3.155 2.996-6.337 5.935-9.623 8.785-5.077 4.407-9.922 9.05-14.791 13.682-3.819 3.617-7.682 7.139-11.698 10.535-2.22 1.891-4.36 3.866-6.508 5.838a132 132 0 0 1-11.136 9.04c-2.055 1.558-3.95 3.231-5.864 4.96-3.402 3.03-6.972 5.515-10.796 7.98-2.253 1.511-4.342 3.132-6.453 4.832-14.77 11.642-31.851 20.69-48.813 28.688l-2.29 1.082c-43.106 20.073-91.093 27.433-137.835 33.793l-2.244.314c-23.196 3.21-46.592 3-69.962 2.996q-4.777 0-9.556.02c-25.825.11-51.46-.646-77.113-3.955l-1.953-.248c-23.077-2.955-47.364-6.901-68.852-16.115-2.25-.91-4.48-1.562-6.82-2.2-22.966-6.714-44.884-20.303-64.16-34.19-2.139-1.446-4.285-2.592-6.59-3.747-13.522-7.265-26.022-21.778-31.437-36.062-3.04-10.221-2.511-19.718.812-29.688 4.535-2.267 9.11-3.703 14-5l-10-1c1.945-2.593 3.87-5.136 5.938-7.625l1.464-1.79c1.744-1.73 3.39-2.541 5.598-3.585l2-2a393 393 0 0 1 5-3l2.938-2.062C324 597 324 597 327.188 596.063c3.613-1.365 4.198-2.604 5.812-6.063l1.375-3.625c1.788-3.713 2.957-4.682 6.625-6.375l2-1h5l1-1c2.647-.206 5.292-.32 7.945-.426 3.244-.412 3.244-.412 6.27-2.633 4.6-2.818 9.02-2.163 14.223-1.691l2.794.2q3.387.245 6.768.55v-2l2.957-.113 3.856-.2 3.832-.175c3.32-.117 3.32-.117 4.543-2.012 2.963-2.453 6.471-1.98 10.156-2.008l2.575-.054c2.823-.055 5.647-.087 8.47-.12q2.993-.048 5.984-.1c20.147-.323 40.296-.35 60.445-.32 5.068.007 10.135.007 15.202.009q14.273.005 28.545.021 16.3.015 32.6.022 33.417.016 66.835.05v-4l2.63-.076q4.826-.143 9.65-.296 2.09-.066 4.179-.125 3-.088 6.002-.187l3.65-.11c2.829-.017 2.829-.017 4.889-1.206 2-.04 4-.043 6 0v-4l1.673-.01q20.262-.122 40.525-.278 9.798-.076 19.598-.134 9.472-.056 18.946-.136 3.597-.028 7.195-.045c21.21 1.496 21.21 1.496 40.063-4.397 2.91-.145 5.72-.186 8.625-.125l2.43.027c1.982.024 3.963.06 5.945.098v-2h83v-4l2.095-.076q4.673-.175 9.342-.361l3.3-.12 3.134-.127 2.904-.11c2.196.036 2.196.036 3.225-1.206 2.863-.073 5.7-.092 8.563-.062l2.443.013q2.997.02 5.994.049z"/><path fill="#F1D51F" d="m950.102 356.902 3.307.008 4.216.027 7.158.034L971 357c2.432 20.687 3.513 41.115 3.446 61.94-.012 3.788.01 7.575.038 11.363.018 2.995.018 5.99.012 8.985q0 2.095.019 4.19c.071 9.189-1.118 17.311-3.588 26.098-2.179 8.049-2.034 16.299-2.291 24.58-.568 17.682-1.634 33.35-8.636 49.844l-1-3h-20v3l-3.684.184-4.754.254-2.431.119c-3.883-.152-3.883-.152-7.131 1.443a91 91 0 0 1-5.129.098l-3.135-.01-3.298-.025-3.311-.014q-4.064-.018-8.127-.049v4h-83v2l-3.648.148-4.727.227-2.406.094c-4.586.05-4.586.05-8.219 2.531-13.552 3.036-27.839 2.258-41.625 2.195l-7.33-.008q-9.568-.014-19.135-.05c-6.53-.02-13.06-.03-19.59-.04q-19.16-.031-38.32-.097v4c-7.63 2.472-15.04 2.226-23 2.125q-2.04-.016-4.082-.027A1828 1828 0 0 1 633 563v4c-25.278.852-50.546 1.09-75.836 1.063l-2.28-.003c-12.547-.012-25.094-.038-37.641-.065-46.34-.172-46.34-.172-92.676.268q-2.82.049-5.641.083c-2.51.033-5.017.084-7.526.142l-2.18.02c-3.812.076-3.812.076-6.973 2.006L401 572c-3.355.293-3.355.293-7.187.188l-3.856-.083L387 572v2h-20c1.296-3.887 3.627-5.107 6.875-7.312q1.918-1.336 3.832-2.676l2.092-1.46c14.392-10.151 28.97-20.53 41.935-32.47a240 240 0 0 1 6.329-5.582c2.887-2.507 5.58-5.138 8.25-7.875 4.004-4.06 8.275-7.607 12.722-11.168 4.485-3.716 8.707-7.7 12.965-11.672 2.959-2.758 5.984-5.431 9.043-8.078A544 544 0 0 0 478 479.5a683 683 0 0 1 9-8c7.765-6.771 15.363-13.729 22.95-20.7q2.935-2.696 5.882-5.382 4.597-4.196 9.168-8.418l1.781-1.64c10.898-10.06 21.416-20.473 31.84-31.019l1.592-1.604a2878 2878 0 0 0 4.308-4.355L567 396l1.823-1.788c3.286-1.83 6.595-1.728 10.267-1.802l2.502-.088q2.723-.095 5.447-.173c5.09-.152 10.178-.359 15.266-.563l3.32-.131c13.325-.546 26.63-1.388 39.938-2.267l3.859-.255c29.223-1.945 58.402-4.378 87.578-6.933l4.975-.433c8.553-.747 17.102-1.534 25.65-2.343q4.026-.38 8.053-.754c43.332-4.048 86.545-8.765 129.72-14.236l2.64-.334q2.397-.305 4.794-.62c2.024-.261 4.052-.498 6.08-.732 3.245-.363 3.245-.363 6.088-2.548 2.867-.435 5.68-.787 8.563-1.062 5.708-.57 10.84-2.062 16.539-2.036"/><path fill="#F0D421" d="M812.063-.625c27.487.595 59.92 33.95 77.761 52.258 4.356 4.56 8.29 9.405 12.176 14.367q1.446 1.782 2.898 3.559c6.43 7.89 12.519 15.92 18.102 24.441l1.342 2.044c14.6 22.382 27.16 45.853 38.658 69.956l.994 2.082c9.463 19.893 17.07 39.37 22.006 60.918l.462 1.988C992.868 258.57 999.382 287.576 999 316l-1-4-2.002.792c-6.77 2.582-13.38 4.285-20.498 5.583-10.66 2.029-21.243 4.307-31.816 6.746l-3.266.742-2.882.666C935 327 935 327 931 327l-1 2a113 113 0 0 1-6.562 2.438c-1.198.41-2.396.822-3.63 1.246l-1.88.642c-1.989.695-3.96 1.426-5.932 2.17-41.38 15.607-85.674 23.928-129.414 29.518a587 587 0 0 0-14.093 1.965c-22.073 3.313-44.099 3.304-66.364 3.048q-3.638-.04-7.275-.068-5.794-.053-11.588-.17-2.16-.038-4.318-.06c-8.788-.093-17.304-.234-23.944-6.666-1.242-2.563-1.885-4.185-2-7.063 1.69-2.264 3.213-3.972 5.25-5.875l1.667-1.598c10.722-10.021 23.494-15.337 37.27-19.964 10.71-3.758 19.088-9.651 26.301-18.36 4.452-5.346 9.462-9.735 14.801-14.167 3.32-2.623 3.32-2.623 5.711-6.036-11.651 6.298-22.776 13.236-33.814 20.552q-2.706 1.79-5.42 3.565c-6.567 4.322-13.01 8.818-19.453 13.32l-2.725 1.905-2.537 1.78-2.292 1.606c-1.694 1.154-1.694 1.154-2.759 2.272-9.383.662-17.374.821-24.875-5.375-3.86-4.769-4.707-8.513-4.125-14.625 4.654-19.529 17.493-36.454 31.004-50.832 2-2.11 2-2.11 3.648-4.305 5.407-6.94 13.085-11.552 21.625-13.68L705 246l2 2c-.194 5.607-2.83 9.831-5.562 14.563l-1.352 2.387a457 457 0 0 1-10.492 17.448A69 69 0 0 0 686 289a925 925 0 0 0 4.75-2.312l2.672-1.301c5.068-2.726 6.971-4.585 8.953-10.074 3.725-9.433 8.945-16.083 17.813-21.125 7.603-2.369 14.561-2.076 21.687 1.55 6.772 4.021 13.522 9.056 17.125 16.262l.41-1.977c1.391-5.646 2.848-9.362 7.61-12.847 8.72-5.177 19.104-5.27 28.98-6.176l-1.828-.734-2.422-1.016-2.39-.984c-2.628-1.41-4.356-3.078-6.36-5.266l1.68-1.828 2.195-2.422 2.18-2.39c1.714-2.08 2.875-3.904 3.945-6.36-11.455 2.72-22.714 5.928-33.964 9.4-5.037 1.485-9.478 1.606-14.723 1.475-6.66-.103-12.85.36-19.375 1.688-7.513 1.503-14.265 2.76-21-1.5-3.083-3.282-3.358-5.794-3.258-10.29C702.312 216.64 711.394 203.28 718 191a795 795 0 0 0 17.405-34.408 781 781 0 0 1 8.947-18.215C775.536 80.603 775.536 80.603 789 18l1.688-.375c2.533-.685 4.891-1.616 7.312-2.625v-2l6-1v-2l2-1-.125-3.375c.17-4.912 1.536-5.947 6.188-6.25"/><path fill="#26A8DE" d="M463 424q11.508-.037 23.016-.055 3.92-.008 7.837-.02 5.618-.017 11.237-.023l3.564-.015h3.275l2.9-.007C517 424 517 424 518 425c2.016.234 4.038.413 6.063.563l3.347.253L530 426c-8.711 10.775-19.555 18.87-30.55 27.15-4.435 3.349-8.846 6.728-13.262 10.1-5.537 4.225-11.086 8.426-16.688 12.563-11.247 8.466-20.953 17.569-30.508 27.894-9.072 9.8-18.357 19.177-28.992 27.293l-1.658 1.283c-26.504 20.439-56.326 34.305-90.361 33.55-14.705-.314-30.463-.592-43.981 6.167a70 70 0 0 1-4.937.25l-2.653.078C264 572 264 572 262.59 570.505c-2.78-2.631-6.635-1.946-10.274-1.946l-2.581-.04c-2.724-.041-5.448-.063-8.173-.082q-4.08-.033-8.161-.091a432 432 0 0 0-5.079-.044c-7.307-.096-7.307-.096-10.322-2.302l-1-2c-3.046-.47-3.046-.47-6.562-.625l-3.63-.227L204 563v-2l-3.312.188c-4.216-.215-3.991-.491-6.688-3.188-2.013-.588-2.013-.588-4.23-.73l-2.432-.245-2.525-.212-2.561-.249c-2.083-.2-4.167-.383-6.252-.564v-4l-1.988.048c-2.962.062-5.924.101-8.887.14l-3.129.076-2.988.029-2.761.048L154 552l-2-3c-3.036-.962-3.036-.962-6.652-1.57l-1.988-.384a738 738 0 0 0-6.298-1.171q-3.144-.593-6.286-1.193a1221 1221 0 0 0-5.713-1.065C122 543 122 543 119 542a238 238 0 0 0-5.343-.29c-11.808-.48-23.189-1.978-32.657-9.71-1.806-2.3-2.802-4.293-4-7l-1-2c-1.28-11.891 2.55-21.002 9.746-30.305 11.155-13.339 25.955-24.623 43.796-26.388q2.147-.188 4.295-.366c7.567-.706 14.927-2.23 22.353-3.784 27.698-5.787 55.492-9.327 83.658-11.862A407 407 0 0 0 251.562 449c7.719-.944 15.45-1.729 23.188-2.5l3.604-.36a1602 1602 0 0 1 16.512-1.574c11.778-1.055 23.467-2.464 35.168-4.17 2.756-.402 5.513-.794 8.27-1.185q2.685-.385 5.368-.774l2.443-.347c5.358-.787 10.614-1.847 15.885-3.09v-1h7v1h44v-2l13-1v-2l2.809-.402 3.628-.536 3.622-.527c2.82-.225 2.82-.225 3.941-1.535 7.617-1.157 15.317-1.12 23-1z"/><path fill="#3CA2A2" d="M815 550h5v12h-2l-.625 3.375c-4.45 17.056-20.5 28.298-34.375 37.625a1552 1552 0 0 0-4.937 3.5q-2.529 1.755-5.063 3.5l-1.643 1.14c-37.066 25.644-79.437 33.334-123.03 40.928a3020 3020 0 0 0-21.898 3.923q-3.07.557-6.142 1.107l-3.736.675-3.446.616c-2.76.543-5.428 1.228-8.14 1.966-3.18.73-3.814.706-7.012-.578l-2.703-1.84c-4.864-2.734-7.34-3.242-12.75-1.812l-3.273.98c-9.198 2.55-17.768 1.065-26.227-3.105-2.426-1.566-4.687-3.266-7-5h-3v4h-13l-2 6c-7.714 5.143-20.5 1.512-29.4.462-14.901-1.742-29.789-2.937-44.767-3.787C357.4 650.2 357.4 650.2 319 631q.214-2.157.438-4.312c.08-.801.162-1.602.246-2.426C320 622 320 622 321 619l-2.812 1.375c-4.097 1.782-8.21 2.378-12.598 3.082-3.169.664-5.738 2.046-8.59 3.543l-3-1c2.51-3.06 4.9-3.752 8.688-4.687l3.011-.762L308 620l-10-1c1.945-2.593 3.87-5.136 5.938-7.625l1.464-1.79c1.744-1.73 3.39-2.541 5.598-3.585l2-2a393 393 0 0 1 5-3l2.938-2.062C324 597 324 597 327.188 596.063c3.613-1.365 4.198-2.604 5.812-6.063l1.375-3.625c1.788-3.713 2.957-4.682 6.625-6.375l2-1h5l1-1c2.647-.206 5.292-.32 7.945-.426 3.244-.412 3.244-.412 6.27-2.633 4.6-2.818 9.02-2.163 14.223-1.691l2.794.2q3.387.245 6.768.55v-2l2.957-.113 3.856-.2 3.832-.175c3.32-.117 3.32-.117 4.543-2.012 2.963-2.453 6.471-1.98 10.156-2.008l2.575-.054c2.823-.055 5.647-.087 8.47-.12q2.993-.048 5.984-.1c20.147-.323 40.296-.35 60.445-.32 5.068.007 10.135.007 15.202.009q14.273.005 28.545.021 16.3.015 32.6.022 33.417.016 66.835.05v-4l2.63-.076q4.826-.143 9.65-.296 2.09-.066 4.179-.125 3-.088 6.002-.187l3.65-.11c2.829-.017 2.829-.017 4.889-1.206 2-.04 4-.043 6 0v-4l1.673-.01q20.262-.122 40.525-.278 9.798-.076 19.598-.134 9.472-.056 18.946-.136 3.597-.028 7.195-.045c21.21 1.496 21.21 1.496 40.063-4.397 2.91-.145 5.72-.186 8.625-.125l2.43.027c1.982.024 3.963.06 5.945.098z"/><path fill="#F2D61F" d="M804 10c2.65.357 3.726.656 5.422 2.785l1.328 2.278c4.78 7.496 10.067 12.38 17.75 16.874 19.62 11.682 24.808 35.204 30.125 56C862 101.44 862 101.44 862 104h2l1-2c32.877 30.516 47.423 81.478 57.648 123.734l.792 3.265a441 441 0 0 1 1.395 6.014c1.347 5.728 3.254 10.62 6.072 15.791 2.419 4.86 2.696 9.855 2.093 15.196-1.25 3.375-1.25 3.375-4 6-3.938 1.383-7.896 2.264-12 3v9h-3v-2l-2.25-.375c-2.551-.58-4.477-1.362-6.75-2.625v-2h-5v-2l-3 1-2.687-1c-4.325-1.305-6.889-.87-11.313 0l-3 2c-.899 4.92-.17 9.522 2 14v2l2 1c.625 2.063.625 2.063 1 4h2l2 6-2 1v4a119 119 0 0 1-3.562 3.438c-1.683 1.614-1.683 1.614-2.438 4.562a113 113 0 0 1-6 5l-2.125 1.688c-1.904 1.332-3.79 2.287-5.875 3.312-.816.425-1.632.85-2.473 1.29l-2.59 1.335-2.597 1.352C857 332 857 332 854 332l-1 2-2-1-1 2-2-1-1 2c-2.085.578-2.085.578-4.805 1.035l-2.957.514-3.113.514q-3.028.514-6.055 1.035l-2.726.453c-2.484.422-2.484.422-5.344 1.449-1.81.199-3.623.362-5.437.5-3.767.273-3.767.273-7.462.986-2.147.525-4.204.797-6.402 1.014l-2.463.25-2.548.25c-15.029 1.38-15.029 1.38-29.625 5-3.84 1.254-7.693 1.877-11.672 2.535-2.394.355-2.394.355-4.391 1.465a232 232 0 0 1-8 1l-2.293.25q-2.49.26-4.984.492-2.742.26-5.477.578c-10.766 1.095-21.468.32-32.246-.32l1-3c4.906-1.577 9.717-2.283 14.832-2.785 6.052-.6 11.934-1.599 17.793-3.215 3.093-.782 6.067-1.213 9.246-1.469 6.866-.586 13.715-1.303 20.567-2.031l3.794-.395 3.64-.386 3.278-.346c2.368-.31 4.546-.776 6.85-1.373 3.56-.302 7.12-.507 10.688-.719 2.62-.222 4.797-.612 7.312-1.281 2.55-.29 5.102-.503 7.66-.719 2.49-.22 2.49-.22 5.34-1.281 3.09-.542 6.186-1.02 9.285-1.5 2.67-.362 2.67-.362 4.715-1.5l3 1 1-2c1.938-.687 1.938-.687 4-1l2 1 1-2h5l1-2 2 1 1-2c1.996-1.07 1.996-1.07 4.438-2.125l2.433-1.07C854 323 854 323 856 323l1-2a242 242 0 0 1 4-3q1.89-1.514 3.75-3.062l1.86-1.536c1.625-1.31 1.625-1.31 1.39-3.402l2-2 1-3h2l-.062-2.937C873 299 873 299 874 298c.126-2.29.176-4.583.188-6.875l.042-3.805c.036-3.458.036-3.458-2.23-6.32-4.641-3.893-10.183-3.882-16-4-3.554.33-3.554.33-7 1q-2.405.232-4.812.438c-7.3.71-14.273 2.093-21.188 4.562-3.724 1.138-3.724 1.138-6 0l-1 2-2-1c1.284-2.569 2.366-2.947 5-4h4l1-2a134 134 0 0 1 6-3l2.375-1.187L834 273c.418-3.332.418-3.332 0-7-2.187-2.35-2.187-2.35-5-4l-1.82-1.512c-2.566-1.751-4.79-2.34-7.805-3.05-5.162-1.225-5.162-1.225-7.375-3.438-1.892-.579-1.892-.579-4.07-.93l-2.47-.472q-2.55-.466-5.1-.922c-5.518-1.064-10.668-2.467-15.36-5.676l-2-3 1.68-1.828 2.195-2.422 2.18-2.39c1.714-2.08 2.875-3.904 3.945-6.36-11.455 2.72-22.714 5.928-33.964 9.4-5.037 1.485-9.478 1.606-14.723 1.475-6.66-.103-12.85.36-19.375 1.688-7.513 1.503-14.265 2.76-21-1.5-3.083-3.282-3.358-5.794-3.258-10.29C702.312 216.64 711.394 203.28 718 191a795 795 0 0 0 17.405-34.408 781 781 0 0 1 8.947-18.215C775.536 80.603 775.536 80.603 789 18l1.688-.375c2.533-.685 4.891-1.616 7.312-2.625v-2l6-1z"/><path fill="#FCFDFD" d="M443.293 882.262c2.63 1.688 5.291 3.086 8.082 4.488 21.081 11.354 34.342 32.157 41.336 54.523 6.41 23.503 2.038 49.041-9.86 69.97-14.33 21.344-40.722 37.313-65.578 42.882-5.639 1.07-11.17 1.219-16.898 1.188l-3.183-.013c-8.726-.126-16.736-1.13-25.192-3.3l-3.266-.809c-19.141-5.304-35.457-15.512-49.734-29.191-.76-.696-1.519-1.392-2.3-2.11-13.745-13.008-21.997-29.737-26.7-47.89l-.586-2.246c-2.72-18.091.976-34.74 7.893-51.385 2.055-5.063 3.147-8.898 2.693-14.369h3v-3l2-1 1-3c4.243-4.685 9.03-7.237 14.926-9.254l2.262-.813a547 547 0 0 1 4.732-1.665 649 649 0 0 0 7.043-2.5C350.677 877.168 366.52 872.66 383 870l2.398-.402c20.83-2.913 40.345.939 57.895 12.664"/><path fill="#FBFCFC" d="M669.004 858.76c2.03-.01 4.058-.04 6.088-.072 8.983-.073 17.22 1.024 25.908 3.312l2.29.603c28.849 8.163 47.65 27.859 62.031 53.374 9.781 17.824 12.834 37.723 7.45 57.445-1.798 6.07-4.05 11.866-6.771 17.578l-1.266 2.727c-10.18 20.3-28.31 34.237-49.21 42.168L712 1037l-2.47.778c-8.833 2.517-17.488 2.78-26.593 2.91q-2.352.044-4.704.092-4.581.088-9.162.153c-3.34.05-6.677.144-10.016.262-23.56.7-43.806-8.578-60.937-24.628C583.25 1002.148 574.977 984.984 570 965l-.59-2.32c-3.474-22.696 2.2-45.507 15.414-64.086 15.986-21.667 41.102-34.858 67.423-39.12 5.585-.706 11.132-.698 16.757-.714"/><path fill="#020202" d="M523.84 1022.766c28.785-1.254 55.71 10.725 76.696 29.887L602 1054l2.68 2.43c13.49 12.818 23.758 29.622 29.445 47.32l.644 1.986c1.103 3.749 1.793 6.618.231 10.264a53.6 53.6 0 0 1-6.187 4.75l-1.892 1.304c-3.744 2.56-7.562 4.994-11.405 7.4-9.763 6.125-18.717 12.569-23.766 23.171-1.575 7.086-1.04 14.28.25 21.375.667 8.001-1.619 14.14-5.812 20.938-4.57 4.308-9.283 5.406-15.46 5.322-6.838-.653-13.482-2.917-20.072-4.772-10.13-2.709-20.898-4.834-30.644.157-3.466 2.335-6.272 5.218-9.012 8.355-8.657-2.285-15.927-6.242-20.91-13.91-5.283-10.13-6.459-21.316-7.512-32.524-1.703-18.894-1.703-18.894-11.578-34.566-6.93-5.405-14.548-7.235-23-9-3.395-11.884-2.05-22.383 3.5-33.5 3.872-6.676 9.136-12.028 14.5-17.5l2.102-2.219c4.342-4.503 9.038-8.443 13.906-12.367q4.813-3.883 9.555-7.851l1.668-1.386c3.578-3.02 6.695-6.251 9.832-9.74 6.33-6.402 12.194-6.148 20.777-6.671"/><path fill="#D4AC30" d="M812.063-.625c27.487.595 59.92 33.95 77.761 52.258 4.356 4.56 8.29 9.405 12.176 14.367q1.446 1.782 2.898 3.559c6.43 7.89 12.519 15.92 18.102 24.441l1.342 2.044c14.6 22.382 27.16 45.853 38.658 69.956l.994 2.082c9.463 19.893 17.07 39.37 22.006 60.918l.462 1.988C992.868 258.57 999.382 287.576 999 316l-1-4-2.002.792c-6.77 2.582-13.38 4.285-20.498 5.583-10.669 2.023-21.252 4.32-31.816 6.833l-3.266.753-2.882.681c-2.55.36-4.12.18-6.536-.642l.656-1.687c3.026-8.294 3.324-14.584-.187-22.723-3.374-5.949-8.33-10.847-13.594-15.152-2.237-2.908-2.055-3.715-1.687-7.25.244-1.401.506-2.8.812-4.188l-3-1 2.703-.297 3.547-.453 3.516-.422c3.616-.926 4.929-1.952 7.234-4.828 2.153-4.306 1.465-9.334.21-13.828-1.347-3.766-2.772-7.356-4.666-10.883-1.653-3.522-2.547-6.8-3.419-10.59q-.513-2.175-1.03-4.35l-.538-2.3C911.301 182.592 896.508 135.823 865 103l-3 1c-2.03-5.687-3.625-11.379-4.99-17.26C850.427 57.51 850.427 57.51 832 35q-2.654-1.627-5.312-3.25C817.764 26.136 810.252 18.796 806 9c-.55-2.69-.46-4.236 0-7 2.307-2.307 2.903-2.42 6.063-2.625"/><path fill="#D6AE2E" d="m950.102 356.902 3.307.008 4.216.027 7.158.034L971 357c2.432 20.687 3.513 41.115 3.446 61.94-.012 3.788.01 7.575.038 11.363.018 2.995.018 5.99.012 8.985q0 2.095.019 4.19c.071 9.189-1.118 17.311-3.588 26.098-2.179 8.049-2.034 16.299-2.291 24.58-.568 17.682-1.634 33.35-8.636 49.844l-1-3h-20v3l-3.684.184-4.754.254-2.431.119c-3.883-.152-3.883-.152-7.131 1.443a91 91 0 0 1-5.129.098l-3.135-.01-3.298-.025-3.311-.014q-4.064-.018-8.127-.049v4h-78l1-5h4v-3l3.48-1.25c23.04-8.476 42.465-21.493 53.16-44.207 1.396-3.05 2.764-6.11 4.119-9.177a244 244 0 0 1 10.116-20.241C923.067 419.389 923.067 419.389 926 366c-.752-3.278-.752-3.278-4-5 5.932-1.459 11.62-2.334 17.715-2.754 3.696-.398 6.47-1.362 10.387-1.344"/><path fill="#FBFCFC" d="m623 412 3 1c3.624 11.636 2.392 23.467-1 35v2h-2l1 3c-.437 2.188-.437 2.188-1 4h-2l1 3h-2l1 3h-2l1 3h-2l1 3h-2l1 3h-2c-1.569 6.985-1.569 6.985-3 14h-2l1 3h-2v6h-2l1 3h-2l1 3h-2l1 3-.875 2.063c-1.376 3.592-1.599 6.914-1.879 10.73C604 519 604 519 603 521c-.718 7.18.615 13.264 3 20l1 3 2 2q2.294 2.758 4.563 5.54L615 553h2v2c11.951 4.328 11.951 4.328 24 2h3l1-2 3.063-2.5L651 550v-2l3-3 .938-2c1.284-2.418 2.807-3.497 5.062-5 1.938.813 1.938.813 4 2 1 3 1 3 1 6l2 1c.594 2.649.742 5.292 1 8 4.187.058 8.375.094 12.563.125l3.58.05c6.089.035 11.085-.29 16.857-2.175l3 1 1-2 3 1 1-2 2 1 1-2 2 1 1-2a589 589 0 0 1 7-3c2.053-1.842 2.053-1.842 3-4h2v-4l-3-1v-2l-3.25-.875c-2.844-.853-5.185-1.689-7.75-3.125 3.315-3.212 6.188-4.843 10.863-5.234 3.943.432 7.395 2.397 10.137 5.234v4l2 1v11l5-1c2.375.375 2.375.375 5 1q3.499.509 7 1l2.773.523c3.516.52 6.864.607 10.418.61l2.024.003q2.103 0 4.208-.006 3.206-.005 6.411.007 2.054 0 4.107-.004l3.74-.004c2.915-.113 5.483-.503 8.319-1.129h5l2-1c1.58-.179 3.164-.32 4.75-.437 4.024-.366 7.456-1.118 11.25-2.563 3.724-1.138 3.724-1.138 6 0l1-2v3h-4l-1 5h-5v2l-3.648.148-4.727.227-2.406.094c-4.586.05-4.586.05-8.219 2.531-13.552 3.036-27.839 2.258-41.625 2.195l-7.33-.008q-9.568-.014-19.135-.05c-6.53-.02-13.06-.03-19.59-.04q-19.16-.031-38.32-.097v4c-7.63 2.472-15.04 2.226-23 2.125q-2.04-.016-4.082-.027A1828 1828 0 0 1 633 563v4c-25.278.852-50.546 1.09-75.836 1.063l-2.28-.003c-12.547-.012-25.094-.038-37.641-.065-47.768-.16-47.768-.16-95.532.38a1012 1012 0 0 0-10.311.21l-2.18.036c-3.606.11-5.132.32-8.22 2.379h-3v-2l-3 1 1-4c5.42-.995 10.774-1.33 16.27-1.621L415 564l1-2 2 1 1-2 6-1 1-2c1.777-1.07 1.777-1.07 3.938-2.125l2.152-1.07C434 554 434 554 436 554l1-2c3.462-3 3.462-3 7-3l1-3h2l2-2 4-3c3.01-2.433 5.826-4.826 8.563-7.562 2.364-2.365 4.81-4.374 7.437-6.438 4.556-3.685 8.318-7.446 12-12l5-5 2.5-3c2.5-3 2.5-3 5.063-5.5 2.576-2.642 4.41-5.426 6.437-8.5a91 91 0 0 1 4-4c2.526-2.403 4.703-4.504 6.5-7.5 1.801-3.002 3.968-5.089 6.5-7.5 3.436-3.335 3.436-3.335 6.5-7 2.826-3.768 6.4-6.903 9.762-10.191l3.426-3.372 1.76-1.708c.557-.552 1.114-1.103 1.689-1.67l1.522-1.49c1.432-1.548 1.432-1.548 2.35-3.592 1.586-3.164 4.31-5.233 6.928-7.54 4.635-4.109 4.635-4.109 9.063-8.437.99 2.673 1.046 3.852.188 6.625C559 438 559 438 557 440l-1 2c-1 2-1 2-3 4l-1 2c-1 2-1 2-3 4a249 249 0 0 0-3 4l-6 8-1.437 1.938c-1.811 2.39-3.683 4.726-5.563 7.062l-1.937 2.5c-2.063 2.5-2.063 2.5-4.625 5-2.472 2.314-2.472 2.314-3.75 4.875-2.08 3.234-4.615 5.337-7.555 7.781-1.97 1.704-3.801 3.496-5.636 5.342-1.65 1.655-3.31 3.3-4.97 4.944q-5.24 5.187-10.466 10.387a2681 2681 0 0 1-4.513 4.472 2594 2594 0 0 0-6.528 6.484l-2.043 2.011-1.892 1.892-1.663 1.65c-1.509 1.623-1.509 1.623-2.423 3.709-1.571 3.072-4.372 4.773-6.999 6.953l-1 3-3 2-1 3c-2 2-2 2-4 3-.766 2.01-.766 2.01-1.25 4.375l-.578 2.398c-.425 2.516-.425 2.516 1.828 5.227 5.927 1.517 13.424 1.788 19-1l3 1 1-2 3 1 1-2q3.495-1.017 7-2l2-2 4-3c4.426-3.257 4.426-3.257 7-8a102 102 0 0 1 3-3c1.588-1.97 2.895-3.784 4-6.062 1.069-2.071 2.366-3.304 4-4.938v-2l1.438-1.375c1.783-1.855 2.131-3.126 2.562-5.625h2l.773-3.035c1.16-4.06 2.908-7.668 4.852-11.403l.984-1.927A886 886 0 0 1 532 502h2l3-9h2l.438-2.875C540 487 540 487 541 485h2l.875-3.375C545 478 545 478 547 476l1-3 2-1 1-3a424 424 0 0 1 4.25-4.187c2.094-2.142 3.854-4.22 5.688-6.563 2.251-2.7 2.795-3.185 6.375-4.062L570 454l1-2c3.547-1.182 5.975-.893 9.688-.562l3.574.308L587 452v2h2c.352 4.928-.699 7.686-3 12v3h-2l-1 8h-2l-.586 1.977c-.797 2.676-1.605 5.35-2.414 8.023l-1.062 3.563C576 493 576 493 574 494c-.838 2.544-.838 2.544-1.5 5.5-.719 3.031-.719 3.031-1.5 5.5l-2 1v5h-2v5h-2l-.437 2.688A243 243 0 0 1 563 527h-2l1 3h-2l1 3a158 158 0 0 1-2 5c-.558 2.752-.558 2.752-.812 5.563l-.333 2.816c.174 3.153 1.143 4.257 3.145 6.621v2l1.863-.437 2.45-.563 2.425-.562C570 553 570 553 573 553l1-2 6-2 1-2 2-1.562c2.556-3.115 2.52-5.285 2.79-9.208.275-2.92 1.267-5.46 2.21-8.23q.288-2.027.5-4.062c.442-3.485 1.22-5.74 2.5-8.938.256-1.986.51-3.973.723-5.965.423-3.108 1.382-6.033 2.277-9.035.538-2.29 1.04-4.586 1.535-6.887.45-2.048.947-4.08 1.465-6.113h2l-1-3c.438-2.187.438-2.187 1-4h2l-.125-3.125c.122-3.772.646-6.424 2.125-9.875l2-1-1-3h2l-1-3c.813-3.125.813-3.125 2-6l2-1-1-3h2l-1-3h2l-1-3h2l-1-3h2l-1-3h2v-5h2l-1-3h2l-.062-2.375C617 425 617 425 618 423h2l-.187-2.125c.23-3.528 1.479-5.815 3.187-8.875"/><path fill="#020202" d="M662.23 842.76c2.237-.01 4.472-.04 6.707-.072 9.748-.072 18.582.998 28.063 3.312l2.505.586C719.978 851.61 738.925 862.31 754 877l2.367 2.215c18.581 17.799 31.371 46.254 31.926 71.952.22 29.452-11.272 53.05-31.418 74.333-15.304 14.802-34.318 25.204-54.875 30.5l-2.676.703c-32.9 7.955-67.994-3.076-96.324-19.703-3.86-2.462-7.448-5.113-11-8l-1.568-1.253c-19.791-15.876-36.362-37.344-39.249-63.41-2.394-30.558 4.416-55.208 24.067-78.9 22.605-26.434 51.906-42.586 86.98-42.677M601 882l-2.61 2.152C581.66 898.575 570.829 917.853 569 940c-.778 12.57-.017 24.042 4 36l.633 1.917c4.894 14.38 12.804 26.175 23.367 37.083l1.781 2.04c12.426 13.678 32.731 23.144 51.035 24.175 3.991.071 7.974-.033 11.963-.146 3.097-.066 6.191-.082 9.289-.087 30.384-.078 56.098-4.324 78.584-26.61 16.28-17.21 25.968-39.439 25.765-63.194-.565-17.972-8.011-33.759-18.417-48.178q-1.176-1.702-2.348-3.406c-15.031-21.711-35.7-34.289-61.586-39.68-6.448-1.133-12.835-1.251-19.371-1.23-1.994.003-3.988-.02-5.982-.045-23.616-.012-48.42 8.202-66.713 23.361"/><path fill="#0B0B0B" d="m615.887 230.668 2.725-.105c3.217.589 4.449 2.015 6.576 4.437 2.852 4.418 3.9 7.756 3.812 13-.8 3.2-1.947 3.96-4.605 5.973-3.634 2.17-7.067 3.281-11.145 4.214l-1.977.499c-8.92 2.143-17.927 2.464-27.065 2.475l-3.119.015q-5.068.021-10.136.027l-3.533.009q-9.268.022-18.536.028c-6.32.006-12.64.03-18.96.058-4.913.019-9.825.024-14.738.026q-3.49.004-6.98.024c-19.632.104-38.449-1.868-57.644-5.973-19.964-4.547-19.964-4.547-39.562-.375-1.843 1.614-1.843 1.614-3.5 3.375-1.703 1.574-1.703 1.574-3.5 2.625-2.525-.134-4.462-.894-6.824-1.797-39.456-14.947-81.997-6.483-122.4-.657-14.137 2.037-28.227 3.974-42.464 5.142-36.975 3.102-73.586 11.843-109.336 21.569l-2.092.56c-1.844.493-3.686.996-5.527 1.5-3.537.72-6.757.804-10.357.683l-1-2 1.625-2.437 1.09-1.66a118 118 0 0 1 2.851-4.024c3.655-5.081 5.206-8.6 5.434-14.879 3.522-1.51 6.893-2.507 10.647-3.265l3.375-.689 3.642-.726 3.82-.77q4.022-.808 8.045-1.608 4.038-.804 8.074-1.623c13.804-2.803 27.613-5.483 41.545-7.577l3.002-.456c16.926-2.436 33.84-3.583 50.926-3.849q2.861-.053 5.722-.109 6.11-.116 12.217-.22c6.524-.11 13.048-.231 19.572-.354q15.607-.291 31.214-.566c21.72-.385 43.44-.784 65.16-1.188l3.357-.062c28.52-.53 57.036-1.108 85.549-1.912q3.185-.09 6.37-.177c39.558-1.107 79.12-2.888 118.578-5.935 6.683-.513 13.373-1.017 20.072-1.246"/><path fill="#030303" d="M470.85 881.508c3.87 3.346 7.519 6.891 11.15 10.492l2.078 1.93c14.42 13.574 25.12 34.874 26.047 54.743.326 12.425.523 24.35-3.125 36.327l-.996 3.574c-7.34 24.307-23.184 47.023-45.004 60.426l-3.277 2.023c-26.403 15.894-60.902 20.737-90.989 13.946-22.823-5.92-41.78-16.618-58.734-32.969l-2.215-2.023C292.152 1017.18 283.082 999.069 279 981l-.68-2.941c-4.242-21.356-1.973-47.277 10.18-65.559 2.497-3.363 4.802-6.401 8.5-8.5 2.312.25 2.312.25 4 1 .193 4.328-.282 7.44-1.898 11.45l-1.204 3.071q-1.26 3.138-2.523 6.274c-3.992 10.192-5.758 19.709-5.688 30.643l.015 2.773c.12 6.963.963 13.196 3.298 19.789l1.066 3.152c10.586 29.38 31.927 49.008 59.38 62.547 24.546 11.1 52.8 13.216 78.183 3.98 8.358-3.357 15.869-7.726 23.371-12.679l1.685-1.09c19.138-12.422 31.481-29.341 36.315-51.91 4.999-23.883-1.13-49.558-14.182-69.836-7.78-11.311-17.046-19.598-29.1-26.117-3.24-1.754-6.362-3.658-9.488-5.607-21.437-13.3-43.159-13.117-67.23-8.44l-3.926.738c-17.655 3.744-35.06 10.137-51.889 16.563C315 891 315 891 312 891c6.896-14.947 23.315-24.15 38.086-29.798 4.582-1.638 9.206-2.975 13.914-4.202l2.828-.746c34.346-7.28 76.785 3.062 104.023 25.254"/><path fill="#3FABDC" d="M670 557h107c-2 2-2 2-4.625 2.688-7.836 3.047-12.055 8.647-15.562 16.078-.984 2.308-.984 2.308-.813 5.234h-2l1 3h-2l1 3c-.812 3.125-.812 3.125-2 6l-2 1 1 3c-.89 2.672-.89 2.672-2.25 5.75l-1.414 3.238L746 609q-.816 1.968-1.625 3.938c-3.295 7.34-6.842 11.856-14.375 15.062h-3l-1 2c-4.016 1.17-7.97 1.13-12.129 1.133l-2.035.003q-2.119 0-4.238-.006-3.236-.005-6.471.007-2.066 0-4.13-.004l-3.777-.004c-2.62-.105-4.737-.348-7.22-1.129v-2l-3 1c-2.187-.937-2.187-.937-4-2v-2h-3c-1.437-1.25-1.437-1.25-3-3l-2-2-2-2-1.75-1.562C666 615 666 615 666 612l-2-1c-3.651-4.45-4.677-8.257-5.508-13.926L658 595l-2-1 1-2-2-1c-.562-2.04-.562-2.04-1-4.625-1.322-7.394-1.322-7.394-4-14.375h-5v-2l-3 1v-2l-3 1c-3.187-1.437-3.187-1.437-6-3v-4l2.63-.076q4.826-.143 9.65-.296 2.09-.066 4.179-.125 3-.088 6.002-.187l3.65-.11c2.829-.017 2.829-.017 4.889-1.206 2-.04 4-.043 6 0z"/><path fill="#BF9769" d="m580.375 1067.438 2.314-.006c9.625.289 18.897 3.555 25.999 10.13 7.548 8.153 9.97 18.66 11.312 29.438-.2 2.316-.2 2.316-1 4-1.602 1.195-1.602 1.195-3.625 2.125l-1.977.945c-21.792 8.448-47.81 1.34-69.905-2.89-17.98-3.415-35.446-3.785-51.868 5.07-9.153 4.898-9.153 4.898-14.55 3.55L475 1119l-2.48-.895c-7.658-3.278-13.29-8.645-17.02-16.105-1.436-8.614-.467-14.619 4.5-22 5.168-5.989 11.986-8.832 19.438-11 4.293 0 7.177 1.204 11.035 2.992 16.974 6.769 40.549 1.864 58.027-.992 22.006-3.585 22.006-3.585 31.875-3.562"/><path fill="#3FABDC" d="M486.991 566.899q7.013.007 14.025.008 13.156.005 26.313.021 15.03.015 30.06.022 30.806.015 61.611.05l-1 2h-4l-1 2-2.938 1.875c-2.887 2.003-3.914 2.912-5.062 6.125h-2c-.974 2.847-1.913 5.693-2.73 8.59l-.77 2.723-.719 2.613C598 595 598 595 596 596l.035 2.012c.046 4.468.085 8.633-1.035 12.988-.943 3.907-1.044 7.425-.938 11.438.07 7.37-.826 14.301-2.062 21.562-7.448 2.389-14.905 2.966-22.125-.5C568 642 568 642 567 641a153 153 0 0 1-.063-6.562l.028-3.63L567 628h2c-.03-1.176-.03-1.176-.063-2.375C569 623 569 623 570 621h2l.75-2.875A93.3 93.3 0 0 1 579 602h2l-1-3h2v-6h2v-10l-2-1-.879-1.984c-.931-2.14-.931-2.14-2.898-2.844-10.909-2.13-19.449-2.033-29.223 3.828-1.645 1.473-1.645 1.473-3 3l-2.563 2.313c-2.59 2.856-3.491 4.99-4.437 8.687h-2l-.184 1.793-.254 2.395-.246 2.355C536 604 536 604 535.473 606.32c-.615 3.482-.605 6.834-.598 10.368l-.012 2.048c-.044 3.758-.044 3.758 1.137 7.264l-1 3 2 1v5l2 1c2.01 2.937 3 4.392 3 8l3 1c.687 2.063.687 2.063 1 4h-3v4h-13l-.875-5.125c-.744-4.111-1.687-7.944-3.125-11.875-1.138-3.724-1.138-3.724 0-6h-2l-.586-5.469c-.404-2.754-.404-2.754-1.445-6.25-1.146-4.467-1.197-8.693-1.094-13.281l.027-2.348c.024-1.884.06-3.768.098-5.652h2l-1-3h2l.312-2.812c.695-3.22 1.165-4.214 3.688-6.188-1.393-2.786-3.304-3.524-6-5l-3-1v-2l-3 1v-2l-3 1v-2l-3 1c-1.673-.65-3.339-1.32-5-2-6.84-1.357-13.737-1.184-20.688-1.187l-3.646-.038c-6.865-.01-13.317.456-20.056 1.794-2.588.427-4.992.506-7.61.431l-1 2c-1.938.688-1.938.688-4 1l-2-1-1 2c-2.305.638-4.615 1.02-6.969 1.438L436 581l-1 2q-2.491 1.021-5 2l-2 2-1.875 1.375c-2.872 2.196-5.493 4.362-7.125 7.625h-2l-1 6h-2c.366 7.455 1.21 14.05 4 21h2l1 3a100 100 0 0 0 3 3 173 173 0 0 1 3.187 4.188l1.606 2.167L430 637l-5 4-2-1-1 2h-7l-1-3-4 1v-2h-3c-2-2.312-2-2.312-4-5l-1.563-1.5C398.19 628.111 397 625.717 397 621l-2-1c-.312-2.714-.513-5.34-.625-8.062l-.117-2.3A754 754 0 0 1 394 604l2-1-1-3c1.892-4.1 4.418-6.337 8-9l2-2h3v-2h4l1-2c2-2 2-2 4-3v-3l-2-1-1.5-1.562c-1.394-1.669-1.394-1.669-3.5-1.438v-2l-2.313.063C405 573 405 573 402 572l2-4c27.668-.74 55.313-1.146 82.991-1.101"/><path fill="#010101" d="M631.438 921.11c11.4 8.41 19.464 19.979 22.562 33.89.478 5.308.478 5.308-1.148 7.663-2.64 1.906-4.534 1.646-7.762 1.56l-3.498-.057-3.654-.104a929 929 0 0 0-7.16-.152l-3.212-.09c-2.733-.09-2.733-.09-4.566 2.18l2.45 1.793 3.237 2.394 3.2 2.356c7.719 6.092 7.719 6.092 8.926 10.27L641 985c-8.322 7.316-22.588 7.744-33.148 7.316-8.698-.714-16.336-3.322-22.852-9.316-6.622-8.932-7.957-17.1-7-28 2.352-12.669 8.992-23.857 19-32 10.848-7.178 22.946-9.04 34.438-1.89"/><path fill="#FAFBFB" d="m882 205 .805 3.035 2.125 8 .526 1.993c.535 1.94 1.137 3.86 1.74 5.78C888 227 888 227 887 230l-4 4c-1.235 2.133-1.235 2.133-2 4h-2l.035 2.082.028 2.73.035 2.708C879 248 879 248 878 251l2 1v3l2 1c1.547 1.758 3 3.579 4.465 5.406 1.55 1.857 1.55 1.857 4.535 2.594l2 2c2.948 2.5 5.456 3.598 9.188 4.563 2.667.69 2.667.69 4.812 1.437l1 2c2.126.467 2.126.467 4.563.625L917 275v9h-3v-2l-2.25-.375c-2.551-.58-4.477-1.362-6.75-2.625v-2h-5v-2l-3 1-2.687-1c-4.325-1.305-6.889-.87-11.313 0l-3 2c-.899 4.92-.17 9.522 2 14v2l2 1c.625 2.063.625 2.063 1 4h2l2 6-2 1v4a119 119 0 0 1-3.562 3.438c-1.683 1.614-1.683 1.614-2.438 4.562a113 113 0 0 1-6 5l-2.125 1.688c-1.904 1.332-3.79 2.287-5.875 3.312-.816.425-1.632.85-2.473 1.29l-2.59 1.335-2.597 1.352C857 332 857 332 854 332l-1 2-2-1-1 2-2-1-1 2c-2.085.578-2.085.578-4.805 1.035l-2.957.514-3.113.514q-3.028.514-6.055 1.035l-2.726.453c-2.484.422-2.484.422-5.344 1.449-1.81.199-3.623.362-5.437.5-3.767.273-3.767.273-7.462.986-2.147.525-4.204.797-6.402 1.014l-2.463.25-2.548.25c-15.029 1.38-15.029 1.38-29.625 5-3.84 1.254-7.693 1.877-11.672 2.535-2.394.355-2.394.355-4.391 1.465a232 232 0 0 1-8 1l-2.293.25q-2.49.26-4.984.492-2.742.26-5.477.578c-10.766 1.095-21.468.32-32.246-.32l1-3c4.906-1.577 9.717-2.283 14.832-2.785 6.052-.6 11.934-1.599 17.793-3.215 3.093-.782 6.067-1.213 9.246-1.469 6.866-.586 13.715-1.303 20.567-2.031l3.794-.395 3.64-.386 3.278-.346c2.368-.31 4.546-.776 6.85-1.373 3.56-.302 7.12-.507 10.688-.719 2.62-.222 4.797-.612 7.312-1.281 2.55-.29 5.102-.503 7.66-.719 2.49-.22 2.49-.22 5.34-1.281 3.09-.542 6.186-1.02 9.285-1.5 2.67-.362 2.67-.362 4.715-1.5l3 1 1-2c1.938-.687 1.938-.687 4-1l2 1 1-2h5l1-2 2 1 1-2c1.996-1.07 1.996-1.07 4.438-2.125l2.433-1.07C854 323 854 323 856 323l1-2a242 242 0 0 1 4-3q1.89-1.514 3.75-3.062l1.86-1.536c1.625-1.31 1.625-1.31 1.39-3.402l2-2 1-3h2l-.062-2.937C873 299 873 299 874 298c.126-2.29.176-4.583.188-6.875l.042-3.805c.036-3.458.036-3.458-2.23-6.32-4.641-3.893-10.183-3.882-16-4-3.554.33-3.554.33-7 1q-2.405.232-4.812.438c-7.3.71-14.273 2.093-21.188 4.562-3.724 1.138-3.724 1.138-6 0l-1 2-2-1c1.284-2.569 2.366-2.947 5-4h4l1-2a134 134 0 0 1 6-3l2.375-1.187L834 273c.418-3.332.418-3.332 0-7-2.187-2.35-2.187-2.35-5-4l-1.82-1.512c-2.566-1.751-4.79-2.34-7.805-3.05-5.162-1.225-5.162-1.225-7.375-3.438l3.797-.184 4.953-.254 2.5-.119 2.422-.127 2.222-.11c2.12-.207 4.05-.66 6.106-1.206q2.184-.25 4.375-.437c3.778-.38 7.028-1.335 10.625-2.563l2 1 1-2 2 1 1-2h4l1-2 3-.937 3-1.063 1-3c2.063-1.187 2.063-1.187 4-2v-2l2-1c.626-3.38 1-6.562 1-10l-2-1c-1.58-1.79-3.065-3.644-4.562-5.504L866 217h-2l-1-3 3.438-.375L870 213l1-2a791 791 0 0 1 5-3l1.625-1.687C879 205 879 205 882 205"/><path fill="#020202" d="M357 937c7.772 6.477 14.477 17.108 16.676 27.059.434 8.748-3.597 15.65-8.988 22.254-3.473 3.727-7.16 6.38-11.688 8.687l-1.898.969c-5.662 2.496-11.009 2.357-17.102 2.031l-3.242-.129c-10.82-.598-20.41-2.528-28.758-9.871-4.995-6.499-5.696-13.072-5-21 2.769-13.151 12.066-23.681 23-31 12.195-7.312 25.179-7.06 37 1"/><path fill="#FAFBFB" d="M691 416c4.5-.376 7.356.85 11.375 2.813l3.441 1.652L709 422a357 357 0 0 0 7 3v2c3.718 1.51 7.466 2.927 11.23 4.316C729 432 729 432 731 433v2l3.625 1.188c5.42 1.798 10.779 3.76 16.14 5.726 4.937 1.657 9.218 2.224 14.423 2.211l3.167.008c2.622.046 2.622.046 4.645-1.133l2 1v-2l3 .875c3.977 1.139 7.982 2.138 12 3.125v2l11 3v2l3.375.938C808 455 808 455 810 456v2l2.375.375C815 459 815 459 817 461l1.938.938c2.144 1.104 3.408 2.333 5.062 4.062l2 1v2l3 1v2c-3.428 1.143-4.31.827-7.625-.312l-2.414-.801C817 470 817 470 816 468l-3 1v-2l-2.375.063C808 467 808 467 806 466v-2l-2.125.188c-3.528-.23-5.815-1.48-8.875-3.188v-2l-2.375.063C790 459 790 459 788 458v-2l-3 1v-2l-3 1v-2h-6v-2l-3 1v-2l-3.187.125c-3.635-.12-5.542-.748-8.813-2.125a99 99 0 0 0-5 0l-1-1a153 153 0 0 0-6.562-.062l-3.63.027L742 448c-.188 2.411-.188 2.411 0 5 2.227 2.215 2.227 2.215 5 4l2.063 1.625c1.906 1.427 1.906 1.427 4.062 2.438C755 462 755 462 757 464l3 1c2 2 2 2 3 4q3.478 1.074 7 2l2 1v2l2.625.875L784 478v2l2.371.586 3.067.789 3.058.773C795 483 795 483 796 485c2.81.692 2.81.692 6.063 1.125l3.347.508L808 487v2l3-1q2.51.972 5 2c1.867.254 3.745.44 5.625.563 3.084.207 5.427.454 8.375 1.437 10.762.695 10.762.695 21-2l3 1 1-2 2 1 1-2 2-1 3 2c-.49 6.49-.49 6.49-2.812 8.813-2.047 1.11-4.079 2.198-6.188 3.187l-1.706 1.044c-3.084 1.285-5.657 1.198-8.993 1.186l-3.912-.005-2.026-.02c-2.054-.018-4.108-.02-6.162-.02-10.06-.045-10.06-.045-11.201-1.185l-2.687.063c-3.543-.067-5.983-.908-9.313-2.063l-3.5-.5c-3.4-.486-6.32-1.213-9.5-2.5l-1-2-3 1v-2h-5v-2l-2.375.063C781 492 781 492 779 491v-2l-2.18-.344c-2.967-.69-5.255-1.74-7.945-3.156-2.644-1.382-5.039-2.555-7.875-3.5l-2-2-3-1-2-2-2-1c-2-1-2-1-4-3l-1.937-.937c-2.17-1.118-3.384-2.314-5.063-4.063a177 177 0 0 0-5.937-4.375C733 462 733 462 730.5 459.438c-2.237-2.448-2.237-2.448-4.5-3.375-3.073-1.633-4.791-4.413-7-7.063l-1.895-.898c-2.765-1.448-4.275-3.353-6.293-5.727-3.718-4.26-7.614-7.98-11.964-11.586-1.908-1.847-2.7-3.428-3.848-5.789-1.478-1.438-1.478-1.438-3.125-2.625L689 420v-2h2z"/><path fill="#3BA1A2" d="m717.875 566.813 3.68-.043c3.288.22 5.499.813 8.445 2.23v2l1.836.305c3.77 1.21 5.288 4.367 7.164 7.695 3.092 8.245 2.374 15.057-1 23-1.562 2.563-1.562 2.563-3 4h-2l-.625 1.813c-1.982 3.153-3.907 3.863-7.375 5.187-5.885 1.19-11.835 1.07-17.812.938-2.166-.19-2.166-.19-3.188 1.062-10.355.946-17.126-1.27-25.336-7.402-1.813-1.741-2.608-3.339-3.664-5.598l-2-1.812c-2.646-2.894-3.161-5.38-4-9.188l-.812-3.5c-.236-4.4.593-6.706 2.812-10.5 5.147-4.075 8.91-5.14 15.375-5.125l3.398-.008c3.227.133 3.227.133 5.82.79 3.216.459 4.72-.476 7.532-2.032 5.19-2.823 8.794-3.781 14.75-3.812"/><path fill="#F8F8F8" d="m197 1170 .376 2.015c3.833 20.085 9.48 39.247 15.856 58.648a9650 9650 0 0 1 7.854 24.022c5.714 17.547 11.007 35.057 13.914 53.315l.563 3.379c.51 4.23.62 8.365.625 12.621l.037 2.328c.012 4.942-.648 8.986-2.225 13.672-3.3-3.828-5.665-7.858-7.875-12.375l-1.05-2.138c-8.501-17.548-14.395-35.687-16.967-55.026-1.793-13.113-5.404-25.724-9.713-38.215-12.66-37.681-12.66-37.681-10.395-54.246 1.94-3.808 4.272-8 9-8"/><path fill="#EDD222" d="m566 468 1 2 3 1c1.188 3.565 1.169 6.491 1.188 10.25l.042 3.89c-.234 3.919-1.046 7.131-2.23 10.86q-.462 2.151-.875 4.313C564.863 515.039 555.917 534.516 545 545a301 301 0 0 0-2.812 3.375c-4.77 5.566-10.173 10.226-17.188 12.625-3.908.075-5.358-.476-8.375-2.937-2.726-5.137-2.46-10.036-.93-15.583C519.74 531.688 526.87 519.131 535 511l1-2h2l.223-1.61c1.087-3.345 3.104-5.88 5.215-8.64l1.236-1.68c1.056-1.398 2.186-2.74 3.326-4.07h2l.364-1.797c1.014-3.512 3.346-6.189 5.511-9.078 3.174-4.253 5.749-8.358 8.125-13.125z"/><path fill="#FAFBFB" d="M565 1124c6.666 2.035 11.167 6.295 15 12 6.007 11.323 9.28 22.126 6.316 34.96-3.119 8.413-8.075 14.105-16.086 18.157-4.837 1.915-8.093 1.314-12.855-.492-5.514-3.556-7.661-9.544-9.09-15.71-.547-3.303-.952-6.585-1.285-9.915l-.336-3.262c-.29-3.245-.489-6.485-.664-9.738l-.27-3.39c-.398-7.972.893-12.655 6.27-18.61 3.877-4.184 7.465-4.984 13-4"/><path fill="#F8F8F8" d="M149 979c4.42 1.473 5.335 4.446 7.375 8.477 3.032 6.546 4.057 13.26 5.136 20.343 2.218 14.46 5.94 28.655 10.372 42.59 4.59 14.748 8.493 29.66 11.93 44.715l.878 3.802c3.144 14.06 4.619 27.627 4.434 42.01q-.016 2.065-.027 4.131-.036 4.966-.098 9.932c-7.127-2.627-9.57-7.927-12.687-14.625-3.95-11.964-4.924-24.49-6.188-36.946-1.119-10.846-2.415-21.59-5.473-32.085-2.484-8.953-3.937-18.147-5.59-27.282q-1.01-5.545-2.027-11.09l-.503-2.752a1100 1100 0 0 0-4.207-21.556C150.32 998.813 148.652 989.09 149 979"/><path fill="#FAFBFB" d="M517.625 1121.125c5.29 1.371 8.007 3.637 10.79 8.188 6.227 11.946 7.489 24.983 4.898 38.19-2.186 6.55-5.444 12.33-11.594 15.774-4.844 2.21-9.294 3.876-14.657 3.973l-2.59.078c-2.994-.397-4.304-1.253-6.472-3.328-2.583-7.75-1.441-17.642.441-25.484.655-2.95.999-5.893 1.372-8.891 1.621-10.524 6.112-25.676 17.812-28.5"/><path fill="#F8F8F8" d="M216 1184c22.367 19.983 30.06 70.957 36.563 98.926 1.408 6.034 2.97 12.023 4.562 18.012a482 482 0 0 1 5.536 23.097c1.038 4.811 2.306 9.47 3.921 14.117C267 1340 267 1340 266 1343c-3.62-4.118-6.52-8.254-9.062-13.125l-1.141-2.18C234.54 1286.079 213.935 1231.715 216 1184"/><path fill="#050505" d="m304.938 1216.5 3.129.8c7.843 2.047 15.577 4.395 23.308 6.825 13.402 4.209 26.339 7.798 40.426 8.543 3.5.363 6.625 1.188 10.012 2.145 7.853 2.147 15.804 3.204 23.875 4.187l2.026.247c8.496 1.026 17.004 1.941 25.516 2.823l2.57.27c4.163.434 8.326.86 12.492 1.265l4.544.465 2.113.196c4.824.507 4.824.507 7.051 2.734-40.411.818-76.562-2.836-115.958-11.433-17.654-3.841-35.237-6.57-53.23-8.192q-3.928-.356-7.855-.727l-3.407-.307C279 1226 279 1226 278 1225c.464-6.27.464-6.27 2.375-8.875 7.028-4.866 17.052-1.604 24.563.375"/><path fill="#FBFBFB" d="m872 142 2 1-1 2 2 1c2.466 9.347-.62 16.81-5 25l-.855 1.96c-1.332 2.374-2.788 3.641-4.895 5.352-3.356 2.822-6.139 5.751-8.828 9.208-1.649 1.716-3.284 2.467-5.422 3.48l-2 2c-2.559 2.047-5.08 3.54-8 5l-2 2-4 2-2 2c-3.577 3-3.577 3-7 3l-1 2q-1.988 1.025-4 2l-2 2-4 2-2 2c-2.125.625-2.125.625-4 1-.368-4.292.518-6.507 3-10 1.375-1.5 1.375-1.5 3-3 4.427-4.336 8.51-8.92 12.598-13.574C828.8 189.2 830.27 188.334 833 187a87 87 0 0 0 4-4.5c3.563-4.286 3.563-4.286 5.911-5.434 2.263-1.155 3.711-2.43 5.507-4.218l1.861-1.854 1.909-1.931 1.943-1.92 1.85-1.858 1.684-1.691c1.564-1.67 1.564-1.67 2.335-4.594l3-2 1-3c2-2 2-2 4-3q1.017-3.495 2-7z"/><path fill="#F4F4F4" d="M359 1376c24.84-.872 49.993 1.74 74.612 4.872 12.953 1.566 25.992 2.254 39.012 3.038 12.056.744 23.676 1.94 35.376 5.09v2c-4.764 1.9-8.935 2.228-13.992 2.047l-2.334-.06c-2.517-.067-5.033-.15-7.549-.237l-5.283-.16c-96.823-3.08-96.823-3.08-119.842-14.59z"/><path fill="#050505" d="M351 561c.688 1.688.688 1.688 1 4-1.312 2.75-1.312 2.75-3 5h-2l-1 6h-2l-2 4c-9.621.292-18.388.281-27.758-2.207-12.994-3.178-26.95-3.587-40.242-4.793v-2q2.935-.946 5.875-1.875l3.305-1.055c9.234-2.587 17.646-3.254 27.226-3.05 13.937.278 27.047-.496 40.594-4.02"/><path fill="#EAD026" d="M630 337c2.84 2.61 3.869 4.546 4.938 8.25.12 7.217-2.283 12.98-7.2 18.25-2.944 2.54-6.152 4.06-9.738 5.5l-3.125 1.313c-4.666 1.115-7.598.453-11.687-2-2.738-2.894-3.049-4.356-3.188-8.313 1.625-2.93 1.625-2.93 4-5.875l1.258-1.572A392 392 0 0 1 609 348l1.879-2.414c4.799-5.946 11.08-11.693 19.121-8.586"/><path fill="#FAFBFB" d="M889 380c10.92-.784 10.92-.784 15.188 2.313 3.774 5.596 3.676 12.104 3.812 18.687-.75 3.75-.75 3.75-2 7l-1.5 4.875c-.719 2.305-.719 2.305-1.5 4.125l-2 1c-.804 1.877-.804 1.877-1.437 4.125-3.375 10.688-3.375 10.688-6.563 13.875l-1.437 2.438c-1.407 2.306-2.603 3.753-4.563 5.562l-2.687 2.688L882 449l-2-2h2l-.125-2.25c.129-2.838.696-4.338 2.125-6.75h2l.438-3.375C887 431 887 431 888 429h2l-1-3h2c1.888-7.957 2.553-15.845 3-24l-2-1c-.634-2.042-1.018-4.091-1.437-6.187L890 393l-2-1c-1.806-2.258-3.395-4.592-5-7l1-3 3-1 2 1z"/><path fill="#F1F1F1" d="M682 1381c-2.01 4.348-3.887 5.378-8.291 7.117-8.368 2.727-18.056 2.103-26.775 2.348l-7.604.236q-5.883.178-11.765.349c-14.723.43-29.39 1.017-44.067 2.282-7.858.672-15.614.902-23.498.668 7.743-9.05 30.407-8.34 41.37-9.293 16.977-1.32 33.997-2.046 51.005-2.832l2.912-.135q4.15-.19 8.299-.373l2.478-.113c5.317-.23 10.614-.285 15.936-.254"/><path fill="#3FABDB" d="m351.285 577.902 2.777.035 2.786.028L359 578c-.812 1.938-.812 1.938-2 4l-3 1c-1.459 1.29-1.459 1.29-3 3-4.442 4.676-4.442 4.676-7.367 6.375-2.866 1.77-5.012 3.738-7.383 6.125l-2.36 2.344c-2.086 2.099-2.086 2.099-2.89 5.156q-1.47 1.53-3 3l-1 2h-2l-.312 2.313c-.776 3.031-1.195 3.859-3.688 5.687-5.056 2.633-9.805 3.557-15.41 4.457-3.169.664-5.738 2.046-8.59 3.543l-3-1c2.51-3.06 4.9-3.752 8.688-4.687l3.011-.762L308 620l-10-1c1.945-2.593 3.87-5.136 5.938-7.625l1.464-1.79c1.744-1.73 3.39-2.541 5.598-3.585l2-2a393 393 0 0 1 5-3l2.938-2.062C324 597 324 597 327.188 596.063c3.613-1.365 4.198-2.604 5.812-6.063l1.375-3.625c1.788-3.713 2.957-4.682 6.625-6.375l2-1h5c1-1 1-1 3.285-1.098"/><path fill="#FAFBFB" d="M657 419c4.814 1.375 7.087 4.145 10 8l2.188 2.625c1.593 2.087 2.678 4.027 3.812 6.375l2 2c3.187 4.215 4.842 8.064 6.29 13.145.547 2.055.547 2.055 2.71 2.855 1.892 3.833 2.53 7.603 3.125 11.813l.508 3.519L688 472c-3.154 0-5.123-.174-7.469-2.383L679 468a372 372 0 0 0-3.5-2.875c-2.89-2.46-4.752-4.717-6.5-8.125-1.945-3.483-1.945-3.483-4.562-6.437-2.056-2.235-2.557-4.685-3.438-7.563l-1.125-2.187C659 439 659 439 659 436l-2-1c-.633-2.941-.633-2.941-1.125-6.562l-.508-3.63L655 422l2-1z"/><path fill="#FCFCFC" d="M846 31c12.693 1.909 24.376 12.913 32.117 22.668C881.94 59.274 883.13 63.114 883 70c-2 1-2 1-3.742.426C866.384 63.706 851.876 48.257 846 35z"/><path fill="#F2F2F2" d="M955 568h2c2.052 4.105 1.19 9.43 1.188 13.938l-.003 3.644c-.085 12.86-1.002 25.617-2.185 38.418l-.243 2.701c-.915 9.954-2.412 19.576-4.757 29.299-10.258-15.387-2.206-48.72 0-66l.42-3.295c2.264-17.39 2.264-17.39 3.58-18.705"/><path fill="#F9FAF9" d="M798 98c1.128 4.739.708 7.479-1 12v3h-2l1 3c-.937 2.688-.937 2.688-2 5h-2l-.812 3.313c-1.102 3.419-1.613 4.463-4.188 6.687v2h-2l-1 5h-2l-.875 3.375C780 145 780 145 778 147l-1 3-4 4v2c-1.531 1.29-1.531 1.29-3.5 2.625l-1.969 1.352L766 161l-1-3h2l-1-3h2l-1-3h2l-1-3 1-2h2l-.062-2.375C771 142 771 142 772 140h2l.223-2.945c.691-4.825 2.887-8.705 5.215-12.93l1.236-2.336c3.049-5.65 3.049-5.65 5.326-6.789l.438-2.312c.624-2.983 1.55-4.435 3.562-6.688l2-1 .938-1.875C795.5 98 795.5 98 798 98"/><path fill="#F9FAFA" d="M840 88h4l2 2 2.563 2.438c4.1 4.31 3.53 7.944 3.437 13.562h-2l-.437 2.313c-.83 3.962-1.638 5.971-4.563 8.687-2.694 2.623-5.23 5.244-7.562 8.188-2.24 2.584-3.42 3.504-6.438 4.812-1.71 1.541-1.71 1.541-3 3-.443-5.984.532-9.876 2.918-15.348 1.49-3.65 2.442-7.384 3.434-11.195.756-2.867 1.693-5.65 2.648-8.457 1.017-3.328 2.01-6.663 3-10"/><path fill="#F3F3F3" d="M119 862h2c2.816 5.976 4.44 12.03 6 18.438l.792 3.219c4.092 16.873 6.437 32.937 6.208 50.343-3.384-1.374-4.695-2.56-6.18-5.89-2.262-5.524-2.632-10.95-2.945-16.86q-.18-3.024-.383-6.047l-.145-2.667c-.38-2.776-1.288-4.95-2.347-7.536a80 80 0 0 1-.852-5.168l-.39-2.959-.383-3.06-.406-3.002c-.81-6.307-1.142-12.455-.969-18.811"/><path fill="#FAFBFB" d="m779.938 423.875 3.714-.008c2.676.106 4.817.334 7.348 1.133v2l2.688.188c4.084 1.001 5.66 2.613 8.312 5.812v2c-3.919 1.849-6.871 2.207-11.184 2.047l-3.56-.129-3.693-.168-3.682-.121c-5.71-.232-10.485-.62-15.881-2.629v-2h-2v-2c2.561-2.296 3.48-3 7-3l1-2c3.485-1.162 6.267-1.133 9.938-1.125"/><path fill="#FBFBFB" d="M845 428c6.297 1.768 9.261 3.92 13.328 9.004 1.569 1.873 3.13 3.307 5.047 4.808C866 444 866 444 867 447l2 2c.565 2.655.738 5.291 1 8l-3 1v-2l-2.312-.437c-4.557-.954-6.53-2.208-9.688-5.563l-1.5-1.437C846 440.75 846 440.75 846 436l-2-1c-1-3-1-3-.062-5.187z"/><path fill="#F4F5F5" d="M355 969c4.11 1.13 6.57 2.354 9 6 0 4.574-2.52 7.22-5.332 10.547-1.95 1.698-3.086 2.278-5.668 2.453-4.72-2.66-8.57-7.24-11-12 .063-2.75.063-2.75 1-5 4.067-2.711 7.228-2.522 12-2"/><path fill="#F7F7F7" d="m761 297 2 2-2.375 1.375c-2.662 1.51-2.662 1.51-4.625 3.625l-4 2-2 2-2.062.5-1.938.5-1 2-4 1-1 2-3 1-1.414 1.426c-3.528 3.502-8.763 5.425-13.649 5.824L720 322c0-3 0-3 1.25-4.562 1.838-1.51 3.626-2.376 5.75-3.438l2.125-1.875c4.447-3.287 9.708-5.436 15.121-6.613L746 305l1-2c2.903-1.375 4.761-2 8-2l1-2a78 78 0 0 1 5-2"/><path fill="#EFEFEF" d="M197 1115c1.805.148 1.805.148 4 1 6.773 10.273 8.326 19.962 8 32-3-1-3-1-4.071-2.527-2.445-5.087-4.218-10.15-5.679-15.598l-.668-2.34c-1.176-4.287-1.84-8.047-1.582-12.535"/><path fill="#F3F3F3" d="M102 791c2.59.35 4.577.738 6.813 2.125 1.95 3.078 1.592 5.289 1.187 8.875-1.14 3.104-2.503 6.053-4 9-3-1-3-1-4.687-4-1.66-4.226-1.982-8.514-1.313-13z"/><path fill="#3DA9D9" d="M494 624c2.813.125 2.813.125 6 1 2.797 4.01 3.345 7.174 3 12-3.929 0-7.199-1.003-11-2l-1-4h-2c.813-1.937.813-1.937 2-4l3-1z"/><path fill="#F6F6F6" d="m523.434 1387.867 3.004.008 2.996-.008C532 1388 532 1388 534 1389c-.346 3.113-.874 4.829-2.75 7.375C529 1398 529 1398 526.563 1398c-3.044-1.188-5.128-2.844-7.563-5 1.118-4.952 1.118-4.952 4.434-5.133"/><path fill="#3FABDB" d="M815 550h5v12h-2v-2l-2-1c-2-2-2-2-3-4l-3 1-1-1a145 145 0 0 0-6.062-.562l-3.348-.254L797 554l1-2h17z"/><path fill="#D7AE2E" d="M944 563h4v11h-4l-1 6h-4c-.187-2.875-.187-2.875 0-6l3-2c.794-2.185.794-2.185 1.188-4.625l.48-2.477z"/><path fill="#F4F5F5" d="M778 213c-.507 3.719-1.116 6.735-3 10h-2l-2 2-5-2v-3c7.512-7 7.512-7 12-7"/><path fill="#F6F7F7" d="m793 289 2 2h-3l-1 2-2-1v2l-3.875.438c-2.382.268-3.97.484-6.125 1.562-2.125-.937-2.125-.937-4-2l1-3q4.184-.58 8.375-1.125l2.406-.34c2.064-.262 4.142-.407 6.219-.535"/><path fill="#016D9D" d="M327 580h14l-2 3h-3v4c-2 0-2 0-4.5-2.375L329 582z"/><path fill="#2C8FA6" d="m305.688 618.875 3.574.055L312 619c-3.31 1.848-6.572 2.745-10.25 3.625l-3.266.79c-.82.192-1.64.386-2.484.585v-3c3.632-2.421 5.383-2.21 9.688-2.125"/><path fill="#2D96AB" d="m549 580 2 1-3 2zm-4 3 2 2h-3zm-3 4 2 1-4 3z"/><path fill="#0F79A2" d="m813 574 1 3c-1.937 3.188-1.937 3.188-4 6l-3-1z"/><path fill="#EAEBEA" d="m822 281-3 3-2-1-1 2-2-1c1.855-3.71 4.208-4.264 8-3"/><path fill="#848484" d="M734 118v3c-2 1.688-2 1.688-4 3 1.152-2.468 2.048-4.048 4-6"/><path fill="#8C8D8D" d="M674 219v3l-4 2z"/><path fill="#656565" d="m669 263 2 1-5 3v-2z"/><path fill="#DBDBDB" d="M656 246h1v8h-1z"/><path fill="#4C4C4D" d="M724 148h1v8h-1z"/><path fill="#8B8B8B" d="M642 289v3l-2 1z"/><path fill="#545454" d="M681 237h1v6h-1z"/><path fill="#878787" d="M722 145h2v3h-2z"/><path fill="#333" d="M542 399h1v5h-1z"/><path fill="#7F7F7F" d="M657 257h1v5h-1z"/><path fill="#4B4B4B" d="M657 235h1v5h-1z"/><path fill="#828282" d="M632 300v3Z"/><path fill="gray" d="m659 272 2 1h-3z"/><path fill="#8A8A8A" d="m661 266 4 1Zm62-109 1 4Z"/><path fill="#ABABAB" d="M738 113v3Z"/><path fill="#6E6E6E" d="m659 264 2 2h-2z"/><path fill="#A4A4A4" d="m656 231 2 1-2 1z"/><path fill="#C4E5F3" d="m186 1360 2 1Z"/><path fill="#A6A6A6" d="m539 393 2 1Z"/><path fill="#A1A1A1" d="m682 244 2 1Z"/><path fill="#7B7B7B" d="m659 230 2 1Z"/><path fill="#9A9A9A" d="m661 229 2 1Z"/><path fill="#8D8D8D" d="m663 228 2 1Z"/><path fill="#838383" d="m665 227 2 1Z"/><path fill="#BEBEBE" d="m783 21 2 1Z"/><path fill="#A6A6A6" d="m786 19 2 1Z"/></svg>