<svg xmlns="http://www.w3.org/2000/svg" width="400" height="400"><g fill-rule="evenodd"><path fill="#f9f9f7" d="M130.6 80.203c-3.777 1.339-3.455-9.317-3.319 109.997.133 115.764-.155 104.996 2.838 106.26 2.142.904 34.447.778 36.125-.141 2.39-1.309 2.29 1.312 2.033-53.238-.235-49.744-.474-59.028-1.85-71.681-1.629-14.984-1.923-27.969-.665-29.359 2.989-3.3 5.895 2.321 13.63 26.359.814 2.53 4.053 12.43 7.198 22 3.145 9.57 7.741 23.61 10.214 31.2 2.472 7.59 5.91 18.12 7.639 23.4l7.402 22.6c8.992 27.454 8.934 27.309 11.49 28.708 1.164.637 3.438.692 28.536.692 30.319 0 28.589.152 30.023-2.639.841-1.636.721-210.387-.122-212.164-1.122-2.365-1.395-2.397-20.243-2.397-19.284 0-18.738-.088-19.836 3.192-1.612 4.814-.194 113.264 1.692 129.408.571 4.893.995 18.988.614 20.405-1.673 6.213-6.461-3.388-14.963-30.005-1.651-5.17-5.728-17.95-9.059-28.4-3.331-10.45-8.905-27.91-12.387-38.8-3.482-10.89-8.637-27.063-11.456-35.94-5.729-18.039-6.071-18.746-9.499-19.609-2.893-.729-53.943-.59-56.035.152"/><path fill="#9c2424" d="M128.258 76.646c-2.571.798-2.252.94 1.088.483 4.099-.56 56.071-.209 57.872.391 2.78.926 4.959 4.214 6.548 9.88.728 2.594 4.312 13.937 6.446 20.4.726 2.2 2.345 7.33 3.597 11.4 2.372 7.71 5.195 16.55 7.792 24.4.837 2.53 2.543 7.84 3.79 11.8 1.247 3.96 3.05 9.63 4.006 12.6.956 2.97 2.848 8.91 4.204 13.2 1.357 4.29 2.902 9.027 3.434 10.527.532 1.499 1.428 4.363 1.99 6.362.562 2 1.62 5.183 2.351 7.074.731 1.89 1.84 4.873 2.463 6.628.624 1.755 1.611 3.724 2.193 4.375l1.059 1.185.523-.975c.977-1.824.817-7.176-.215-7.176-1.104 0-3.622-6.23-6.467-16-.544-1.87-1.781-5.74-2.747-8.6-.967-2.86-1.958-6.01-2.201-7-.243-.99-1.044-3.51-1.781-5.6-.736-2.09-2.345-7.04-3.575-11s-2.788-8.82-3.462-10.8c-.674-1.98-1.66-5.13-2.192-7-.531-1.87-1.589-5.11-2.35-7.2-.762-2.09-1.833-5.33-2.382-7.2-.548-1.87-1.53-5.02-2.181-7-.651-1.98-1.551-4.86-2-6.4a250.27 250.27 0 0 0-1.856-6c-.572-1.76-1.944-6.08-3.049-9.6-6.245-19.89-6.742-21.039-9.745-22.58l-1.989-1.02-29.611-.078c-25.413-.068-29.886.007-31.553.524m114.728-.273c-1.906.457-3.166 1.293-1.386.92 3.663-.767 36.927-.33 38.589.507 3.573 1.799 3.211-10.654 3.211 110.6 0 120.74.337 108.85-3.127 110.423-1.921.872-57.045 1.224-59.27.378-.597-.227-.95-.239-.82-.029.825 1.336 2.918 1.428 32.417 1.428h29.2l2-1c1.531-.765 2.211-1.419 2.9-2.785l.9-1.785-.002-106.415c-.002-71.726-.137-106.898-.414-107.897-.512-1.845-2.677-3.695-5.009-4.283-1.955-.492-37.161-.548-39.189-.062m-75.252 81.901c-.737 2.821-.06 19.718 1.255 31.326 1.464 12.924 1.816 104.37.411 106.761-1.801 3.064-1.611 3.039-23.328 3.039-17.504 0-19.202.057-18 .6 1.121.506 4.296.6 20.328.6 21.778 0 21.27.075 23.2-3.4l1-1.8.13-28.8c.071-15.84-.106-43.02-.394-60.4-.672-40.502-.677-40.323 1.121-39.634.838.322.475-.768-1.787-5.366-2.072-4.211-3.352-5.162-3.936-2.926"/><path fill="#74bcec" d="M128.565 77.187c-2.444.372-3.969 1.3-4.885 2.972-.849 1.549-1.314 210.622-.478 214.521 1.064 4.958 1.228 4.992 23.998 4.841 20.424-.136 20.422-.136 22.2-3.16 1.405-2.391 1.053-93.837-.411-106.761-2.042-18.019-2.086-32.617-.099-32.326 2.133.312 4.389 6.691 28.907 81.726 4.313 13.2 8.723 26.61 9.8 29.8 1.077 3.19 3.324 10.002 4.993 15.137 4.038 12.426 4.714 13.712 7.912 15.048 2.504 1.046 57.438.897 59.771-.162 3.464-1.573 3.127 10.317 3.127-110.423 0-106.763-.002-107.003-.811-108.4-1.739-3.001-1.73-3-22.189-3-20.187 0-20.416.026-22.304 2.501L237 80.938l-.124 49.631c-.106 42.653-.025 51.74.578 64.631.854 18.241.868 19.933.178 21.176l-.541.975-1.059-1.185c-.582-.651-1.569-2.62-2.193-4.375a307.336 307.336 0 0 0-2.463-6.628c-.731-1.891-1.789-5.074-2.351-7.074-.562-1.999-1.458-4.863-1.99-6.362-.532-1.5-2.077-6.237-3.434-10.527-1.356-4.29-3.248-10.23-4.204-13.2-.956-2.97-2.759-8.64-4.006-12.6-1.247-3.96-2.953-9.27-3.79-11.8-2.597-7.85-5.42-16.69-7.792-24.4-1.252-4.07-2.871-9.2-3.597-11.4-2.134-6.463-5.718-17.806-6.446-20.4-1.589-5.666-3.768-8.953-6.548-9.881-1.648-.55-55.229-.853-58.653-.332m58.07 2.864c3.428.863 3.77 1.57 9.499 19.609 2.819 8.877 7.974 25.05 11.456 35.94 3.482 10.89 9.056 28.35 12.387 38.8 3.331 10.45 7.408 23.23 9.059 28.4 8.502 26.617 13.29 36.218 14.963 30.005.381-1.417-.043-15.512-.614-20.405-1.886-16.144-3.304-124.594-1.692-129.408 1.098-3.28.552-3.192 19.836-3.192 18.848 0 19.121.032 20.243 2.397.843 1.777.963 210.528.122 212.164-1.434 2.791.296 2.639-30.023 2.639-25.098 0-27.372-.055-28.536-.692-2.556-1.399-2.498-1.254-11.49-28.708l-7.402-22.6c-1.729-5.28-5.167-15.81-7.639-23.4-2.473-7.59-7.069-21.63-10.214-31.2-3.145-9.57-6.384-19.47-7.198-22-7.735-24.038-10.641-29.659-13.63-26.359-1.258 1.39-.964 14.375.665 29.359 1.376 12.653 1.615 21.937 1.85 71.681.257 54.55.357 51.929-2.033 53.238-1.678.919-33.983 1.045-36.125.141-2.993-1.264-2.705 9.504-2.838-106.26-.136-119.314-.458-108.658 3.319-109.997 2.092-.742 53.142-.881 56.035-.152"/><path fill="#2C3E50" d="M0 200v200h400V0H0v200M191.411 77.22c3.003 1.541 3.5 2.69 9.745 22.58 1.105 3.52 2.477 7.84 3.049 9.6a250.27 250.27 0 0 1 1.856 6c.449 1.54 1.349 4.42 2 6.4.651 1.98 1.633 5.13 2.181 7 .549 1.87 1.62 5.11 2.382 7.2.761 2.09 1.819 5.33 2.35 7.2.532 1.87 1.518 5.02 2.192 7 .674 1.98 2.232 6.84 3.462 10.8 1.23 3.96 2.839 8.91 3.575 11 .737 2.09 1.538 4.61 1.781 5.6.243.99 1.234 4.14 2.201 7 .966 2.86 2.203 6.73 2.747 8.6 2.894 9.94 5.362 16 6.514 16 .677 0 .682 1.259-.059-14.6-.499-10.676-.595-22.801-.502-63.4L237 81l.926-1.298c.51-.715 1.77-1.795 2.8-2.4L242.6 76.2l18.6-.13c20.319-.142 21.696-.03 24.109 1.959 2.412 1.989 2.286-4.102 2.289 110.586l.002 106.415-.9 1.785c-.689 1.366-1.369 2.02-2.9 2.785l-2 1h-29.4c-32.233 0-30.54.121-33.52-2.391-1.919-1.619-2.905-3.857-6.29-14.272a1782.657 1782.657 0 0 0-4.993-15.137c-1.077-3.19-5.488-16.6-9.802-29.8-14.408-44.091-23.51-71.405-24.028-72.106-1.716-2.322-2.165 1.844-1.694 15.706.217 6.38.425 34.37.461 62.2l.066 50.6-1 1.8c-1.928 3.471-1.448 3.4-23 3.4-20.717 0-20.687.003-23.429-2.474-2.562-2.315-2.426 4.266-2.293-111.126.136-117.322-.129-106.842 2.751-108.962 2.738-2.016 2.496-2.003 34.182-1.918l29.611.08 1.989 1.02"/></g></svg>